<svg width="242" height="250" viewBox="0 0 242 250" fill="none" xmlns="http://www.w3.org/2000/svg">
<path d="M116.614 85.4451C116.614 85.4451 59.1627 103.251 57.9721 111.625C56.7815 119.999 73.2845 180.085 81.8077 180.243C90.3309 180.4 125.401 168.264 125.401 168.264L116.614 85.4451Z" fill="#414447"/>
<path d="M125.901 169.135C125.856 169.157 125.812 169.18 125.767 169.203C124.335 169.707 90.451 181.409 81.8157 181.252C80.627 181.239 79.3876 180.463 78.0973 178.926C72.4159 172.198 66.161 152.31 63.7198 144.098C59.9183 131.121 56.3674 115.764 57.007 111.498C57.7735 106.267 74.7184 99.3171 87.3964 94.4864C101.774 89.0144 116.159 84.5516 116.316 84.528C116.607 84.436 116.921 84.5009 117.169 84.6559C117.417 84.811 117.554 85.079 117.601 85.3926L126.432 168.188C126.457 168.57 126.258 168.952 125.901 169.135ZM68.2353 104.817C60.4618 108.78 59.1102 110.876 58.9376 111.752C58.4487 115.209 61.3138 128.89 65.5769 143.545C70.5301 160.439 75.7647 173.136 79.5225 177.637C80.6998 179.063 81.419 179.259 81.7553 179.256C89.3141 179.399 119.152 169.367 124.274 167.6L115.661 86.7757C111.925 87.9486 99.9789 91.7869 88.0166 96.3653C78.9161 99.8226 72.5687 102.608 68.2353 104.817Z" fill="white"/>
<path d="M182.048 116.309C183.192 113.475 185.124 110.97 187.554 109.113C188.646 108.274 189.919 107.569 191.308 107.312C192.673 107.009 194.177 107.2 195.327 108.02C196.478 108.841 197.162 110.294 196.836 111.642" fill="#414447"/>
<path d="M197.336 112.512C197.113 112.626 196.889 112.628 196.642 112.585C196.125 112.454 195.739 111.919 195.87 111.402C196.087 110.504 195.585 109.409 194.728 108.832C193.872 108.256 192.704 108.063 191.473 108.297C190.398 108.507 189.326 109.054 188.144 109.938C185.87 111.66 183.982 114.029 182.971 116.683C182.773 117.178 182.17 117.43 181.675 117.232C181.18 117.034 180.928 116.43 181.126 115.935C182.336 112.898 184.379 110.281 186.988 108.332C188.415 107.267 189.778 106.628 191.099 106.349C192.822 105.977 194.574 106.322 195.882 107.231C197.393 108.318 198.193 110.218 197.825 111.925C197.782 112.172 197.56 112.398 197.336 112.512Z" fill="white"/>
<path d="M191.714 110.538C191.714 110.538 197.172 105.898 200.816 107.305C202.008 107.767 203.16 108.812 203.24 110.403C201.793 111.76 200.21 112.961 198.536 113.983" fill="#414447"/>
<path d="M199.014 114.921C198.568 115.149 197.983 114.997 197.711 114.573C197.416 114.104 197.545 113.475 198.014 113.18C199.509 112.249 200.892 111.206 202.161 110.053C201.883 108.956 200.893 108.448 200.398 108.25C197.856 107.238 193.684 110.096 192.281 111.318C191.835 111.658 191.207 111.641 190.867 111.195C190.482 110.772 190.545 110.121 190.991 109.781C191.236 109.6 196.939 104.778 201.123 106.361C202.945 107.064 204.1 108.558 204.226 110.351C204.274 110.664 204.141 110.957 203.896 111.138C202.404 112.518 200.777 113.741 199.036 114.854C199.059 114.899 199.014 114.921 199.014 114.921Z" fill="white"/>
<path d="M189.55 113.432C191.091 112.59 197.637 110.895 199.316 110.434C200.994 109.972 202.855 109.98 204.431 110.753C206.007 111.525 207.164 113.243 207.56 115.124C205.169 116.174 191.809 124.157 190.098 126.099" fill="#414447"/>
<path d="M201.771 120.551C201.414 120.733 200.943 120.692 200.627 120.403C200.22 120.048 200.17 119.398 200.526 118.991C202.126 117.162 204.155 115.621 206.299 114.528C205.84 113.186 204.958 112.117 203.899 111.587C202.706 111.013 201.136 110.913 199.502 111.352C197.913 111.768 196.44 112.632 194.988 113.428C194.519 113.723 193.912 113.526 193.617 113.057C193.367 112.566 193.519 111.982 193.988 111.686C195.573 110.822 197.136 109.913 198.971 109.427C201.097 108.85 203.184 108.968 204.805 109.83C206.561 110.736 207.989 112.654 208.455 114.893C208.571 115.34 208.305 115.813 207.903 116.018C205.646 117 203.662 118.518 201.994 120.325C201.995 120.437 201.905 120.483 201.771 120.551Z" fill="white"/>
<path d="M180.039 137.54C182.26 140.573 185.418 142.903 189.443 144.284C189.899 145.29 190.4 146.273 191.191 147.052C191.982 147.83 193.152 148.247 194.203 147.88C194.918 147.628 195.452 147.018 195.738 146.366C196.423 144.948 196.275 143.222 195.703 141.769C195.131 140.316 194.134 139.023 193.918 137.275C195.931 130.733 200.213 124.892 205.812 120.968C207.351 119.902 209.003 118.947 210 117.37C210.997 115.792 210.956 113.393 209.378 112.396C208.319 111.754 206.974 111.877 205.744 112.223C202.946 112.917 200.31 114.261 198.104 116.117" fill="#414447"/>
<path d="M194.926 148.637C194.837 148.683 194.703 148.751 194.614 148.797C193.339 149.278 191.721 148.864 190.591 147.752C189.756 146.996 189.255 146.013 188.821 145.052C184.885 143.625 181.66 141.273 179.303 138.084C178.963 137.638 179.093 137.009 179.539 136.669C179.984 136.33 180.613 136.459 180.953 136.905C183.129 139.848 186.151 142.023 189.906 143.317C190.176 143.404 190.379 143.582 190.516 143.85C190.927 144.766 191.382 145.66 192.038 146.283C192.557 146.749 193.323 147.147 193.971 146.873C194.351 146.735 194.729 146.374 194.972 145.856C195.457 144.821 195.424 143.43 194.898 142.067C194.737 141.642 194.51 141.195 194.282 140.748C193.758 139.721 193.234 138.693 193.112 137.349C193.088 137.192 193.087 137.08 193.131 136.945C195.254 130.178 199.58 124.201 205.379 120.119C205.58 119.961 205.848 119.824 206.093 119.643C207.342 118.781 208.547 117.942 209.3 116.77C210.009 115.621 210.062 113.848 209.003 113.206C208.417 112.83 207.497 112.792 206.154 113.139C203.513 113.81 201.012 115.085 198.872 116.851C198.427 117.191 197.843 117.151 197.459 116.727C197.119 116.282 197.159 115.698 197.582 115.314C199.922 113.389 202.692 111.977 205.624 111.214C206.81 110.891 208.579 110.608 210.022 111.561C212.095 112.868 212.186 115.918 210.946 117.901C209.971 119.411 208.566 120.409 207.183 121.339C206.982 121.497 206.714 121.634 206.513 121.793C201.116 125.557 197.077 131.106 195.085 137.356C195.204 138.252 195.614 139.056 196.047 139.905C196.298 140.396 196.548 140.888 196.754 141.402C197.509 143.325 197.502 145.298 196.751 146.807C196.264 147.618 195.641 148.273 194.926 148.637Z" fill="white"/>
<path d="M191.43 123.009C192.151 120.559 190.89 116.981 189.728 114.702C186.938 110.665 183.805 108.604 180.115 107.107C173.695 109.198 167.635 114.314 166.112 120.268C164.588 126.223 167.335 133.378 171.567 138.257C174.423 139.221 178.528 139.436 181.619 138.873C183.606 137.804 185.434 136.31 186.855 134.572" fill="#414447"/>
<path d="M182.03 139.79C181.94 139.835 181.851 139.881 181.739 139.882C178.38 140.469 174.139 140.21 171.216 139.224C171.014 139.158 170.901 139.047 170.788 138.935C165.899 133.21 163.688 125.782 165.146 120.029C166.647 114.142 172.569 108.534 179.817 106.19C180.063 106.121 180.287 106.119 180.512 106.23C184.876 107.945 187.99 110.41 190.599 114.202C190.622 114.247 190.644 114.291 190.667 114.336C191.328 115.632 193.403 120.033 192.465 123.382C192.289 123.922 191.753 124.195 191.236 124.065C190.697 123.889 190.424 123.353 190.554 122.836C191.144 120.791 190.086 117.503 188.97 115.314C186.634 111.945 183.971 109.813 180.147 108.273C173.773 110.453 168.452 115.473 167.168 120.574C165.711 126.327 168.612 133.122 172.234 137.467C174.774 138.254 178.431 138.472 181.343 138.001C183.152 137.023 184.8 135.619 186.134 134.039C186.489 133.633 187.117 133.538 187.523 133.894C187.929 134.249 188.024 134.877 187.668 135.283C186.068 137.112 184.151 138.652 182.03 139.79Z" fill="white"/>
<path d="M152.382 102.278C163.981 102.95 172.482 105.933 181.481 112.546C188.986 123.073 183.613 132.848 173.651 135.056C167 133.493 164.668 133.556 157.087 133.368C152.883 123.466 151.072 112.626 152.382 102.278Z" fill="#414447"/>
<path d="M178.198 134.482C176.858 135.165 175.427 135.67 173.859 136.019C173.703 136.042 173.546 136.066 173.411 136.022C167.21 134.568 164.922 134.496 158.171 134.392L157.094 134.378C156.69 134.358 156.352 134.137 156.17 133.779C151.805 123.34 150.128 112.432 151.439 102.195C151.502 101.657 151.992 101.294 152.508 101.312C164.4 102.005 172.967 105.01 182.147 111.756C182.238 111.823 182.328 111.889 182.373 111.979C186.023 117.041 187.007 122.393 185.249 127.004C183.906 130.222 181.459 132.82 178.198 134.482ZM173.619 134.002C178.298 132.912 181.819 130.103 183.247 126.28C184.764 122.298 183.876 117.686 180.724 113.27C172.198 107.034 164.147 104.159 153.264 103.347C152.261 112.752 153.775 122.787 157.707 132.377L158.155 132.373C164.862 132.501 167.374 132.571 173.619 134.002Z" fill="white"/>
<path d="M165.957 134.869C165.51 135.097 164.926 134.944 164.653 134.52C164.358 134.052 164.488 133.423 164.956 133.128C169.487 130.312 172.518 124.995 172.723 119.656C172.928 114.317 170.194 108.844 165.842 105.716C165.391 105.383 165.296 104.756 165.629 104.305C165.962 103.854 166.589 103.759 167.04 104.092C172.001 107.642 174.941 113.629 174.787 119.73C174.565 125.809 171.269 131.598 166.114 134.846C166.001 134.846 166.001 134.846 165.957 134.869Z" fill="white"/>
<path d="M149.379 214.97C148.742 216.702 147.454 218.259 145.824 219.147C144.193 220.034 141.238 220.64 139.397 220.453C131.835 219.861 127.873 206.459 126.6 198.44C125.704 192.818 125.403 185.823 128.102 181.071C129.562 178.525 133.231 177.442 136.126 177.711C137.204 177.837 138.305 178.12 139.408 178.628C139.708 191.251 143.192 203.715 149.379 214.97Z" fill="#414447"/>
<path d="M146.101 220.131C144.314 221.042 141.358 221.648 139.294 221.462C135.546 221.178 132.338 218.198 129.694 212.679C127.14 207.227 125.948 201.024 125.615 198.605C124.41 190.72 124.923 184.661 127.246 180.606C128.95 177.655 133.044 176.412 136.254 176.746C137.488 176.848 138.702 177.243 139.872 177.772C140.232 177.926 140.415 178.283 140.44 178.664C140.715 190.907 144.108 203.305 150.273 214.514C150.41 214.783 150.434 215.051 150.347 215.321C149.622 217.323 148.178 219.016 146.324 220.017C146.235 220.063 146.145 220.108 146.101 220.131ZM131.141 179.634C130.203 180.112 129.445 180.724 128.981 181.579C126.901 185.229 126.452 190.861 127.586 198.275C128.766 205.891 132.613 218.958 139.457 219.465C141.163 219.609 143.917 219.049 145.324 218.276C146.597 217.571 147.686 216.396 148.236 215.046C142.184 203.835 138.768 191.505 138.427 179.353C137.64 179.023 136.808 178.827 136.045 178.766C134.497 178.599 132.66 178.86 131.141 179.634Z" fill="white"/>
<path d="M154.798 202.414C154.424 206.207 152.049 212.258 150.093 214.494C148.092 216.752 145.076 218.233 142.11 217.494C140.178 217.015 138.463 215.638 137.172 213.989C135.88 212.339 134.99 210.373 134.235 208.45C131.969 202.57 130.71 196.345 130.594 190.156C130.529 187.488 130.709 184.751 131.925 182.498C133.252 180.133 135.707 178.544 138.352 178.434C141.042 178.301 143.788 179.603 145.623 181.876C149.25 189.764 152.535 193.999 154.798 202.414Z" fill="#414447"/>
<path d="M147.629 217.72C145.798 218.653 143.759 218.961 141.894 218.504C139.894 218.004 137.955 216.629 136.392 214.668C134.92 212.773 133.961 210.56 133.32 208.861C130.985 202.846 129.748 196.554 129.608 190.209C129.566 187.585 129.677 184.601 131.07 182.034C132.529 179.376 135.341 177.605 138.368 177.47C141.349 177.357 144.455 178.812 146.448 181.286C146.494 181.376 146.517 181.42 146.562 181.51C147.771 184.102 148.887 186.291 149.957 188.39C152.234 192.746 154.192 196.476 155.761 202.205C155.762 202.317 155.83 202.451 155.787 202.586C155.391 206.558 152.906 212.834 150.817 215.25C149.86 216.245 148.791 217.127 147.629 217.72ZM135.742 180.159C134.536 180.774 133.512 181.746 132.849 182.985C131.677 185.102 131.586 187.794 131.604 190.148C131.741 196.269 132.954 202.293 135.175 208.084C135.815 209.671 136.683 211.705 137.953 213.422C139.244 215.071 140.777 216.203 142.373 216.572C145.204 217.268 147.815 215.655 149.371 213.849C151.194 211.794 153.414 206.103 153.835 202.511C152.357 197.073 150.468 193.477 148.26 189.256C147.189 187.156 146.029 184.99 144.82 182.398C143.212 180.459 140.782 179.335 138.473 179.442C137.508 179.427 136.591 179.726 135.742 180.159Z" fill="white"/>
<path d="M159.775 199.37C158.97 202.539 155.856 205.815 152.697 206.243C145.104 207.356 138.609 199.916 136.04 195.429C133.857 191.589 131.102 183.312 134.157 178.265C135.463 176.08 139.137 175.558 141.92 175.827C146.894 183.817 152.626 191.308 159.775 199.37Z" fill="#414447"/>
<path d="M155.122 206.471C154.362 206.858 153.602 207.133 152.818 207.251C149.211 207.795 145.434 206.569 141.846 203.726C139.297 201.705 136.807 198.809 135.17 195.929C132.691 191.508 130.113 183.028 133.324 177.733C134.918 175.119 139.018 174.549 142.025 174.817C142.316 174.837 142.632 175.014 142.768 175.282C147.583 182.959 153.18 190.406 160.488 198.669C160.714 198.892 160.784 199.25 160.719 199.565C160.002 202.463 157.713 205.15 155.122 206.471ZM136.418 177.619C135.837 177.915 135.369 178.323 135.059 178.819C132.291 183.325 134.729 191.088 136.934 194.973C139.208 198.992 145.433 206.344 152.556 205.302C155.02 204.946 157.737 202.436 158.679 199.648C151.597 191.607 146.091 184.339 141.368 176.841C139.662 176.697 137.758 176.936 136.418 177.619Z" fill="white"/>
<path d="M137.607 183.486C137.473 183.554 137.361 183.555 137.204 183.579C136.016 183.678 134.83 184.001 133.781 184.592C133.289 184.843 132.705 184.69 132.41 184.222C132.159 183.73 132.312 183.146 132.78 182.851C134.098 182.123 135.575 181.708 137.032 181.584C137.569 181.535 138.066 181.957 138.115 182.495C138.186 182.966 137.964 183.304 137.607 183.486Z" fill="white"/>
<path d="M141.054 194.111L136.585 196.277C136.094 196.527 135.487 196.33 135.236 195.839C134.986 195.347 135.183 194.74 135.674 194.49L140.098 192.347C140.589 192.097 141.196 192.294 141.447 192.785C141.765 193.299 141.545 193.861 141.054 194.111Z" fill="white"/>
<path d="M146.121 205.487C146.032 205.532 145.898 205.601 145.808 205.646C145.294 205.852 144.687 205.655 144.481 205.141C144.275 204.627 144.495 204.064 144.987 203.814C146.216 203.243 147.239 202.159 147.632 200.833C147.807 200.293 148.344 200.02 148.883 200.195C149.423 200.37 149.696 200.906 149.521 201.446C149.041 203.154 147.774 204.644 146.121 205.487Z" fill="white"/>
<path d="M153.375 206.798C153.017 206.981 152.546 206.939 152.23 206.65C151.824 206.295 151.818 205.622 152.197 205.26C152.997 204.402 153.639 203.343 153.944 202.174C154.075 201.657 154.633 201.317 155.172 201.492C155.712 201.667 156.03 202.18 155.855 202.72C155.462 204.158 154.711 205.554 153.643 206.662C153.575 206.64 153.464 206.753 153.375 206.798Z" fill="white"/>
<path d="M157.125 201.678C157.125 201.678 149.592 204.787 142.637 195.781C137.563 189.249 136.23 182.33 138.41 177.11C139.937 174.475 141.272 173.119 143.252 171.152C149.645 171.326 155.971 174.462 159.972 178.445C163.972 182.428 167.114 188.481 166.821 193.978C164.174 196.846 157.125 201.678 157.125 201.678Z" fill="#414447"/>
<path d="M157.581 202.572C157.536 202.594 157.536 202.594 157.491 202.617C157.402 202.663 149.175 205.956 141.834 196.415C136.714 189.794 135.11 182.451 137.487 176.736C137.509 176.669 137.509 176.669 137.554 176.646C139.103 173.943 140.504 172.497 142.574 170.485C142.752 170.281 143.043 170.189 143.334 170.21C149.548 170.363 156.208 173.271 160.751 177.766C165.407 182.372 168.215 188.764 167.875 194.059C167.877 194.283 167.766 194.509 167.633 194.689C164.92 197.648 158.027 202.344 157.737 202.548C157.67 202.526 157.625 202.549 157.581 202.572ZM139.31 177.552C137.264 182.591 138.795 189.128 143.462 195.191C149.488 203.038 155.82 201.105 156.67 200.785C157.495 200.195 163.317 196.158 165.875 193.559C166.018 188.871 163.44 183.262 159.327 179.168C155.236 175.118 149.273 172.473 143.664 172.181C141.906 173.921 140.705 175.209 139.31 177.552Z" fill="white"/>
<path d="M159.437 132.79C166.168 141.909 171.995 152.898 176.542 163.694C179.147 169.908 179.166 178.116 174.536 182.503C171.686 185.194 164.769 189.733 160.909 192.207C155.107 195.953 144.967 189.753 142.547 181.362C142.271 180.489 142.443 179.501 142.953 178.735C143.617 177.72 144.348 176.504 145.009 175.041C143.267 173.058 141.372 171.66 137.446 168.596C144.44 156.588 152.108 144.912 159.437 132.79Z" fill="#414447"/>
<path d="M160.806 193.442C158.528 194.603 155.725 194.625 152.733 193.505C147.605 191.616 143.15 186.851 141.63 181.66C141.284 180.542 141.476 179.262 142.163 178.18C142.606 177.504 143.248 176.445 143.867 175.229C142.487 173.737 140.818 172.45 138.02 170.274L136.892 169.385C136.508 169.074 136.392 168.515 136.635 168.109C140.906 160.81 145.447 153.486 149.899 146.432C152.779 141.812 155.769 137.079 158.625 132.302C158.802 131.987 159.115 131.828 159.451 131.825C159.788 131.822 160.08 131.955 160.284 132.245C166.585 140.74 172.522 151.503 177.503 163.373C181.182 172.135 178.91 179.822 175.282 183.304C172.477 185.972 166.073 190.194 161.499 193.145C161.253 193.214 161.029 193.328 160.806 193.442ZM138.745 168.384L139.196 168.717C142.378 171.204 144.138 172.558 145.744 174.385C146.016 174.696 146.064 175.122 145.91 175.482C145.16 177.103 144.363 178.41 143.809 179.311C143.432 179.897 143.325 180.571 143.509 181.152C144.846 185.762 148.804 189.992 153.392 191.705C156.091 192.693 158.579 192.607 160.409 191.449C162.998 189.792 170.897 184.639 173.857 181.835C178.154 177.788 178.003 169.872 175.603 164.172C170.942 153.04 165.368 142.88 159.496 134.673C156.861 138.999 154.114 143.326 151.523 147.518C147.27 154.301 142.862 161.333 138.745 168.384Z" fill="white"/>
<path d="M96.664 221.75C95.8467 223.349 94.4215 224.638 92.7676 225.369C91.091 226.054 88.2003 226.346 86.4265 226.068C79.2182 224.846 77.0083 211.789 76.7466 204.099C76.5925 198.718 77.0788 192.053 80.2753 187.835C81.9843 185.556 85.6345 184.878 88.4192 185.372C89.4747 185.565 90.4646 185.961 91.5008 186.559C90.1805 198.432 92.0242 210.551 96.664 221.75Z" fill="#414447"/>
<path d="M93.6701 226.034C93.4914 226.125 93.3127 226.217 93.134 226.308C91.3233 227.062 88.2312 227.4 86.2103 227.079C82.6171 226.434 79.857 223.339 77.9755 217.881C76.1396 212.513 75.7788 206.506 75.7158 204.174C75.4549 196.596 76.7111 190.89 79.4188 187.258C81.3941 184.619 85.4919 183.825 88.5464 184.406C89.7369 184.644 90.8616 185.084 91.9206 185.726C92.2588 185.947 92.441 186.305 92.3989 186.664C91.2109 198.245 92.9862 210.229 97.6033 221.384C97.7399 221.652 97.7198 221.944 97.5875 222.236C96.7255 223.858 95.3231 225.192 93.6701 226.034ZM82.6914 187.053C82.0213 187.395 81.4195 187.871 81.02 188.412C78.5787 191.683 77.4985 196.961 77.6884 204.069C77.9248 211.378 80.0637 223.965 86.531 225.058C88.1927 225.337 90.8591 225.047 92.2896 224.43C93.586 223.882 94.7669 222.886 95.4974 221.669C91.0153 210.559 89.218 198.642 90.3167 187.106C89.6186 186.73 88.8766 186.489 88.1356 186.361C86.4958 186.015 84.3444 186.211 82.6914 187.053Z" fill="white"/>
<path d="M103.613 209.765C102.834 213.427 99.8285 219.124 97.6017 221.16C95.4196 223.173 92.2442 224.341 89.3877 223.265C87.521 222.584 85.9618 221.071 84.8941 219.308C83.8263 217.544 83.1378 215.531 82.6289 213.539C81.0348 207.542 80.4699 201.244 81.028 195.162C81.254 192.514 81.749 189.842 83.2128 187.745C84.7431 185.557 87.4017 184.258 90.027 184.44C92.6523 184.621 95.3108 186.193 96.8096 188.581C99.5416 196.7 102.29 201.209 103.613 209.765Z" fill="#414447"/>
<path d="M95.849 223.573C93.6152 224.712 91.1949 224.932 89.0584 224.164C87.1243 223.461 85.3628 221.883 84.0681 219.785C82.819 217.776 82.1507 215.472 81.6663 213.749C80.0485 207.594 79.4837 201.297 80.04 194.991C80.2888 192.387 80.7146 189.469 82.3781 187.101C84.1529 184.62 87.0795 183.184 90.0858 183.34C93.0475 183.519 95.9767 185.29 97.6795 187.968C97.7251 188.058 97.7479 188.102 97.7934 188.192C98.6667 190.898 99.5812 193.134 100.428 195.348C102.168 199.864 103.701 203.754 104.643 209.578C104.644 209.69 104.668 209.847 104.601 209.937C103.757 213.801 100.641 219.723 98.3026 221.872C97.5457 222.595 96.6978 223.14 95.849 223.573ZM86.5416 186.104C85.5588 186.605 84.6898 187.329 84.0468 188.276C82.6268 190.239 82.244 192.91 82.06 195.199C81.5238 201.214 82.0422 207.309 83.6136 213.263C84.0533 215.008 84.6744 216.999 85.8096 218.785C86.8774 220.548 88.2999 221.793 89.8066 222.319C92.5054 223.307 95.298 221.94 96.9904 220.402C99.0393 218.569 101.823 213.21 102.626 209.706C101.731 204.196 100.266 200.44 98.5501 196.08C97.7031 193.866 96.7886 191.631 95.9381 188.969C94.5988 186.893 92.323 185.521 89.9894 185.36C88.778 185.302 87.6138 185.557 86.5416 186.104Z" fill="white"/>
<path d="M108.016 210.785C106.266 213.534 102.336 215.763 99.1925 215.227C91.5803 213.985 87.6526 204.956 86.5595 199.941C85.6512 195.62 85.4709 186.875 89.9262 183.028C91.842 181.376 95.5017 181.93 98.0447 183.054C100.403 192.096 103.634 200.974 108.016 210.785Z" fill="#414447"/>
<path d="M104.552 215.14C102.765 216.051 100.794 216.493 99.0653 216.192C95.4502 215.615 92.203 213.33 89.6391 209.515C87.8242 206.838 86.2939 203.284 85.6186 200.083C84.5483 195.112 84.636 186.231 89.3138 182.158C91.608 180.144 95.7172 180.807 98.4624 181.997C98.755 182.129 98.981 182.352 99.0283 182.665C101.294 191.416 104.435 200.228 108.954 210.307C109.114 210.619 109.072 210.978 108.872 211.249C107.876 212.939 106.294 214.252 104.552 215.14ZM91.1174 183.377C90.9387 183.468 90.7153 183.582 90.5822 183.763C86.5947 187.202 86.6138 195.41 87.5221 199.731C88.4768 204.254 92.2013 213.106 99.3194 214.261C101.767 214.646 105.118 213.05 106.849 210.704C102.49 200.938 99.3951 192.328 97.1756 183.779C95.1512 183.009 92.6363 182.603 91.1174 183.377Z" fill="white"/>
<path d="M91.923 188.933C91.6996 189.047 91.4753 189.048 91.2283 189.005C90.0825 188.745 88.8264 188.71 87.6622 188.966C87.1025 189.082 86.5839 188.728 86.4674 188.168C86.3509 187.608 86.7057 187.09 87.2655 186.973C88.7432 186.67 90.2683 186.681 91.6839 187.028C92.2007 187.159 92.5414 187.717 92.4109 188.234C92.3461 188.548 92.1463 188.819 91.923 188.933Z" fill="white"/>
<path d="M92.0548 200.122C91.9655 200.168 91.8761 200.213 91.764 200.214L86.9033 200.947C86.3882 201.041 85.8468 200.642 85.7531 200.127C85.6594 199.612 86.0589 199.07 86.5739 198.976L91.4347 198.243C91.9498 198.15 92.4911 198.549 92.5848 199.064C92.633 199.49 92.4569 199.917 92.0548 200.122Z" fill="white"/>
<path d="M95.1295 211.895C94.4147 212.259 93.6316 212.489 92.8476 212.608C92.3098 212.657 91.7912 212.302 91.7194 211.719C91.6476 211.137 92.0251 210.663 92.6077 210.591C93.9969 210.446 95.2242 209.651 96.0231 208.568C96.356 208.117 96.9604 207.978 97.4115 208.311C97.8626 208.644 98.0019 209.248 97.669 209.699C97.0033 210.602 96.1571 211.371 95.1295 211.895Z" fill="white"/>
<path d="M99.9823 215.893C99.4909 216.144 98.8839 215.947 98.6561 215.5C98.4056 215.009 98.558 214.424 99.0267 214.129C100.076 213.538 100.967 212.746 101.632 211.732C101.942 211.236 102.569 211.141 102.998 211.43C103.493 211.74 103.588 212.367 103.3 212.795C102.48 214.057 101.344 215.143 99.9823 215.893C100.027 215.871 100.027 215.871 99.9823 215.893Z" fill="white"/>
<path d="M104.798 212.2C104.798 212.2 96.6856 212.959 92.7448 202.247C89.8586 194.488 90.634 187.507 94.3228 183.15C96.5495 181.115 98.2244 180.205 100.726 178.929C106.753 181.035 111.882 185.907 114.522 190.865C117.162 195.823 118.358 202.586 116.425 207.737C112.987 209.715 104.798 212.2 104.798 212.2Z" fill="#414447"/>
<path d="M116.144 209.062C112.391 210.975 105.433 213.115 105.098 213.23C105.053 213.252 104.941 213.253 104.896 213.276C104.784 213.277 95.9535 213.951 91.8287 202.658C88.9417 194.787 89.5787 187.314 93.5784 182.573C93.6231 182.55 93.645 182.483 93.645 182.483C95.9383 180.357 97.7025 179.401 100.249 178.103C100.472 177.989 100.786 177.942 101.011 178.052C106.88 180.07 112.367 184.871 115.349 190.499C118.399 196.261 119.193 203.23 117.281 208.201C117.215 208.403 117.037 208.606 116.859 208.698C116.657 208.744 116.412 208.925 116.144 209.062ZM104.633 211.215C105.595 210.893 112.352 208.8 115.567 207.048C117.08 202.618 116.338 196.524 113.584 191.343C110.875 186.251 106.02 181.916 100.757 179.983C98.568 181.099 97.0499 181.985 95.001 183.818C91.5575 187.994 91.0493 194.725 93.6841 201.881C97.1431 211.206 103.715 211.289 104.633 211.215Z" fill="white"/>
<path d="M152.504 166.999C148.784 170.19 144.475 172.668 140.206 174.45C138.374 181.125 136.065 187.086 132.704 193.19C129.984 198.122 122.286 203.116 110.106 205.611C98.1672 204.605 95.3372 189.668 99.9493 182.927C101.334 182.221 102.407 181.787 103.636 181.216C98.2581 167.354 95.8346 152.774 97.3467 139.62C112.34 144.078 128.534 144.378 143.686 140.537" fill="#414447"/>
<path d="M123.87 202.027C120.073 203.963 115.465 205.524 110.271 206.596C110.158 206.597 110.069 206.642 110.002 206.621C104.885 206.19 100.849 203.35 98.5686 198.547C96.0608 193.296 96.2992 186.477 99.0927 182.351C99.1812 182.193 99.3152 182.125 99.4939 182.034C100.566 181.487 101.438 181.099 102.354 180.688C96.9504 166.445 94.8886 152.243 96.3815 139.493C96.4017 139.201 96.6014 138.931 96.802 138.772C97.0473 138.591 97.3609 138.544 97.6307 138.631C112.533 143.023 128.346 143.348 143.41 139.553C143.947 139.391 144.51 139.723 144.626 140.283C144.788 140.82 144.456 141.383 143.896 141.5C128.9 145.317 113.088 145.104 98.1869 140.937C96.9603 153.326 99.1534 167.123 104.531 180.873C104.737 181.387 104.494 181.905 104.003 182.156L103.399 182.407C102.483 182.818 101.611 183.206 100.584 183.73C98.3016 187.313 98.1903 193.167 100.356 197.748C102.294 201.769 105.7 204.255 110.009 204.647C120.801 202.41 128.907 197.996 131.804 192.748C134.988 186.96 137.342 181.088 139.239 174.211C139.304 173.897 139.527 173.671 139.818 173.579C144.333 171.727 148.484 169.16 151.848 166.264C152.271 165.879 152.922 165.941 153.262 166.387C153.647 166.81 153.584 167.461 153.139 167.801C149.73 170.721 145.579 173.287 140.997 175.229C139.076 182.062 136.722 187.933 133.538 193.722C131.858 196.829 128.427 199.704 123.87 202.027Z" fill="white"/>
<path d="M100.234 144.733C97.3707 148.501 95.1202 153.25 95.9225 158.357C104.931 168.962 122.206 172.707 136.599 169.253C149.335 166.194 163.693 158.143 167.155 147.71C168.206 144.472 165.857 139.422 163.048 135.901C142.602 145.367 122.719 149.424 100.234 144.733Z" fill="#414447"/>
<path d="M150.561 165.175C146.093 167.452 141.285 169.172 136.831 170.26C121.072 174.016 103.97 169.395 95.1874 159.013C95.0517 158.857 94.9833 158.723 94.9816 158.499C94.3177 153.884 95.8709 148.871 99.5343 144.133C99.7787 143.84 100.159 143.702 100.518 143.744C121.116 148.046 140.292 145.363 162.705 135.007C163.107 134.802 163.624 134.932 163.918 135.289C166.885 139.011 169.349 144.396 168.166 148.039C165.755 155.122 158.647 161.053 150.561 165.175ZM96.8833 157.923C105.257 167.613 121.436 171.861 136.345 168.313C148.343 165.461 162.747 157.724 166.21 147.403C167.086 144.705 165.101 140.37 162.789 137.159C140.777 147.198 121.019 149.953 100.736 145.828C97.6736 149.978 96.3596 154.025 96.8833 157.923Z" fill="white"/>
<path d="M101.597 164.188C101.463 164.257 101.261 164.303 101.104 164.327C100.544 164.331 100.136 163.863 100.132 163.303C100.223 160.611 100.898 157.959 102.113 155.595C102.378 155.122 102.96 154.938 103.455 155.136C103.928 155.402 104.112 155.983 103.914 156.478C102.854 158.595 102.222 160.999 102.128 163.355C102.131 163.691 101.909 164.029 101.597 164.188Z" fill="white"/>
<path d="M115.164 169.936C115.03 170.004 114.829 170.051 114.649 170.03C114.088 170.034 113.658 169.522 113.677 169.006C113.79 166.246 114.329 163.551 115.206 160.965C115.381 160.426 115.985 160.174 116.48 160.372C117.019 160.547 117.271 161.151 117.073 161.646C116.217 164.052 115.743 166.545 115.651 169.125C115.721 169.483 115.477 169.777 115.164 169.936Z" fill="white"/>
<path d="M133.473 171.072C133.295 171.163 133.093 171.209 132.891 171.143C132.352 171.08 131.967 170.545 132.03 170.006C132.411 167.11 132.411 164.24 132.119 161.349C132.07 160.811 132.425 160.293 133.008 160.221C133.545 160.172 134.064 160.527 134.136 161.109C134.451 164.157 134.43 167.207 134.05 170.215C133.963 170.597 133.741 170.935 133.473 171.072Z" fill="white"/>
<path d="M152.97 163.609C152.881 163.654 152.747 163.723 152.635 163.723C152.097 163.772 151.579 163.418 151.507 162.835C151.195 160.236 150.569 157.684 149.564 155.27C149.358 154.756 149.623 154.171 150.137 153.965C150.651 153.759 151.236 154.024 151.442 154.538C152.494 157.154 153.188 159.839 153.501 162.663C153.571 163.021 153.328 163.426 152.97 163.609Z" fill="white"/>
<path d="M165.93 151.712L165.885 151.734C165.371 151.94 164.809 151.72 164.558 151.229L161.635 144.501C161.429 143.987 161.649 143.425 162.141 143.174C162.655 142.968 163.217 143.188 163.468 143.68L166.391 150.407C166.641 150.899 166.421 151.461 165.93 151.712Z" fill="white"/>
<path d="M95.8439 116.578C93.2727 129.089 92.9624 138.196 96.989 151.284C115.989 177.846 170.793 156.944 165.569 136.98C162.355 124.604 159.879 111.907 154.741 100.061C137.284 110.424 116.918 115.741 95.8439 116.578Z" fill="#414447"/>
<path d="M151.114 158.42C150.578 158.694 149.997 158.99 149.438 159.218C140.567 163.346 130.222 165.356 121.022 164.643C110.16 163.763 101.559 159.367 96.2083 151.851C96.1627 151.762 96.1172 151.672 96.0716 151.583C91.883 137.846 92.4587 128.266 94.9002 116.383C95.0088 115.934 95.3873 115.572 95.8358 115.569C117.426 114.75 137.61 109.076 154.263 99.2354C154.531 99.0988 154.8 99.0743 155.07 99.1619C155.34 99.2495 155.566 99.472 155.68 99.6953C159.721 108.948 162.131 118.864 164.47 128.422C165.119 131.131 165.837 133.973 166.553 136.703C168.542 144.358 162.64 152.544 151.114 158.42ZM97.9269 150.806C104.32 159.592 114.094 162.095 121.185 162.645C130.049 163.361 140.036 161.422 148.595 157.453C160.147 152.07 166.431 144.083 164.606 137.19C163.867 134.415 163.217 131.594 162.5 128.863C160.254 119.709 157.938 110.308 154.236 101.501C137.715 111.048 117.822 116.631 96.6136 117.536C94.3928 128.968 93.9459 137.808 97.9269 150.806Z" fill="white"/>
<path d="M133.614 157.435C132.09 157.649 129.978 157.15 128.955 155.364C128.046 153.801 126.143 145.54 126.215 140.494C126.249 139.014 127.332 137.054 128.582 136.192C134.091 132.426 140.505 129.551 146.902 127.303C150.994 125.836 154.217 124.981 156.743 126.845C157.352 127.267 157.806 127.936 157.991 128.63C159.347 132.947 160.1 137.404 160.202 141.911C160.24 143.862 159.358 145.775 157.775 146.976C151.731 151.351 142.372 156.066 133.614 157.435Z" fill="#414447"/>
<path d="M149.703 153.004C144.923 155.441 139.355 157.548 133.778 158.421C131.852 158.727 129.357 158.029 128.106 155.796C127.129 154.1 125.157 145.705 125.273 140.412C125.303 138.595 126.519 136.343 128.058 135.277C132.921 131.897 139.02 128.957 146.602 126.274C150.695 124.807 154.387 123.769 157.341 125.921C158.131 126.476 158.697 127.256 158.974 128.241C160.354 132.603 161.107 137.172 161.21 141.791C161.273 144.123 160.191 146.307 158.363 147.689C156.022 149.389 153.054 151.296 149.703 153.004ZM135.89 132.973C133.433 134.226 131.178 135.544 129.148 136.973C128.144 137.653 127.238 139.297 127.224 140.486C127.128 145.376 129.098 153.546 129.826 154.863C130.576 156.226 132.262 156.661 133.449 156.45C142.588 155.056 151.945 150.004 157.162 146.106C158.455 145.109 159.228 143.533 159.193 141.919C159.069 137.48 158.362 133.112 157.006 128.906C156.845 128.369 156.505 127.924 156.121 127.613C154.092 126.171 151.45 126.729 147.2 128.22C142.996 129.688 139.24 131.265 135.89 132.973Z" fill="white"/>
<path d="M133.621 158.332C133.219 158.537 132.725 158.451 132.43 158.095C129.558 155 128.538 147.809 127.898 143.464C127.424 140.103 128.837 137.356 131.92 135.785C139.336 132.004 148.049 127.788 156.466 125.748C157.003 125.587 157.521 125.942 157.682 126.479C157.844 127.016 157.489 127.535 156.952 127.696C148.76 129.733 140.158 133.837 132.854 137.617C130.531 138.801 129.536 140.715 129.915 143.224C130.46 147.054 131.48 154.133 133.945 156.76C134.329 157.183 134.312 157.811 133.889 158.196C133.799 158.241 133.71 158.287 133.621 158.332Z" fill="white"/>
<path d="M142.191 155.933C142.146 155.956 142.102 155.979 142.012 156.024C141.475 156.185 140.912 155.853 140.774 155.361C138.814 148.536 137.458 141.46 136.887 134.378C136.838 133.84 137.261 133.344 137.798 133.295C138.336 133.246 138.833 133.668 138.882 134.206C139.452 141.176 140.74 148.118 142.675 154.786C142.836 155.211 142.638 155.705 142.191 155.933Z" fill="white"/>
<path d="M142.191 138.598C142.156 136.983 143.267 135.629 144.657 135.596C146.047 135.563 147.245 136.809 147.303 138.468C147.338 140.083 146.227 141.437 144.837 141.47C143.402 141.526 142.226 140.212 142.191 138.598Z" fill="#414447"/>
<path d="M146.232 142.11C145.83 142.315 145.338 142.453 144.845 142.479C142.894 142.517 141.244 140.825 141.204 138.65C141.196 137.641 141.48 136.652 142.102 135.885C142.769 135.095 143.662 134.639 144.604 134.609C146.555 134.572 148.205 136.263 148.244 138.438C148.302 140.097 147.438 141.495 146.232 142.11ZM144.127 136.766C143.949 136.857 143.793 136.993 143.66 137.173C143.349 137.557 143.195 138.029 143.2 138.59C143.23 139.644 143.955 140.513 144.784 140.484C145.614 140.455 146.302 139.597 146.272 138.543C146.241 137.49 145.517 136.621 144.687 136.65C144.508 136.629 144.306 136.675 144.127 136.766Z" fill="white"/>
<path d="M148.675 144.692C148.64 143.078 149.75 141.723 151.141 141.69C152.531 141.657 153.729 142.903 153.787 144.562C153.822 146.177 152.711 147.531 151.321 147.564C149.863 147.576 148.71 146.306 148.675 144.692Z" fill="#414447"/>
<path d="M152.716 148.204C152.269 148.432 151.822 148.547 151.328 148.574C150.342 148.626 149.442 148.185 148.718 147.428C148.062 146.693 147.696 145.754 147.665 144.7C147.657 143.691 147.941 142.702 148.563 141.935C149.23 141.144 150.123 140.689 151.065 140.659C153.016 140.622 154.666 142.313 154.705 144.488C154.713 145.497 154.429 146.486 153.807 147.254C153.519 147.682 153.118 147.999 152.716 148.204ZM150.611 142.86C150.432 142.952 150.276 143.087 150.143 143.268C149.832 143.651 149.679 144.124 149.683 144.684C149.688 145.245 149.871 145.714 150.233 146.093C150.504 146.405 150.887 146.603 151.268 146.578C151.649 146.553 152.006 146.37 152.295 146.054C152.606 145.671 152.76 145.198 152.755 144.638C152.725 143.584 152 142.715 151.171 142.744C150.968 142.678 150.79 142.769 150.611 142.86Z" fill="white"/>
<path d="M150.343 134.385C150.376 132.793 151.577 131.505 152.99 131.517C154.402 131.528 155.489 132.888 155.48 134.525C155.447 136.117 154.246 137.405 152.833 137.394C151.421 137.382 150.333 136.023 150.343 134.385Z" fill="#414447"/>
<path d="M154.364 138.077C153.872 138.327 153.313 138.444 152.797 138.425C150.845 138.351 149.306 136.546 149.334 134.393C149.371 133.361 149.722 132.394 150.39 131.716C151.079 130.971 151.995 130.56 152.96 130.575C154.912 130.65 156.451 132.454 156.422 134.607C156.386 135.639 156.034 136.606 155.367 137.284C155.078 137.6 154.766 137.872 154.364 138.077ZM152.348 132.688C152.17 132.779 152.058 132.892 151.903 133.028C151.569 133.367 151.394 133.906 151.375 134.422C151.361 135.499 152.018 136.346 152.893 136.406C153.297 136.426 153.654 136.243 153.943 135.927C154.277 135.588 154.452 135.049 154.471 134.533C154.485 133.456 153.828 132.609 152.953 132.549C152.729 132.55 152.527 132.597 152.348 132.688Z" fill="white"/>
<path d="M91.9368 112.997C90.0026 115.165 90.981 119.845 94.8142 122.506C115.515 137.056 164.102 109.811 159.088 93.793C138.194 103.375 115.884 109.626 91.9368 112.997Z" fill="#414447"/>
<path d="M137.697 120.176C122.776 127.783 104.768 130.771 94.2148 123.318C91.8471 121.655 90.28 119.133 89.991 116.578C89.7983 114.875 90.2127 113.37 91.1684 112.263C91.3015 112.083 91.5249 111.969 91.7938 111.945C116.256 108.48 138.118 102.232 158.654 92.8321C158.922 92.6955 159.214 92.7156 159.484 92.8032C159.754 92.8908 159.935 93.1361 160.027 93.4269C161.89 99.4002 157.329 106.904 147.495 114.112C144.485 116.378 141.182 118.4 137.697 120.176ZM92.4595 113.913C92.0382 114.522 91.8656 115.398 92.0075 116.338C92.2474 118.355 93.4738 120.319 95.3904 121.649C102.741 126.795 112.805 125.999 120.036 124.395C129.148 122.396 138.712 118.082 146.339 112.506C154.611 106.431 159.025 100.073 158.381 95.1666C138.09 104.385 116.496 110.496 92.4595 113.913Z" fill="white"/>
<path d="M99.256 125.589C98.7646 125.839 98.1575 125.642 97.907 125.151C96.7236 122.94 96.2778 120.409 96.5266 117.806C96.5897 117.267 97.0575 116.86 97.6409 116.9C98.1796 116.963 98.5869 117.431 98.5466 118.014C98.317 120.214 98.7375 122.363 99.7387 124.217C99.9445 124.731 99.7474 125.338 99.256 125.589Z" fill="white"/>
<path d="M111.987 127.598C111.428 127.826 110.821 127.629 110.615 127.115C109.543 124.791 109.299 122.214 109.772 119.609C109.88 119.047 110.393 118.729 110.932 118.792C111.493 118.9 111.811 119.413 111.748 119.952C111.339 122.131 111.625 124.349 112.493 126.271C112.676 126.74 112.479 127.347 111.987 127.598Z" fill="white"/>
<path d="M129.337 123.65C129.292 123.673 129.247 123.696 129.158 123.741C128.621 123.902 128.081 123.615 127.919 123.078C127.275 120.93 126.786 118.646 126.477 116.384C126.428 115.846 126.783 115.327 127.32 115.278C127.858 115.229 128.377 115.584 128.426 116.122C128.734 118.272 129.177 120.467 129.777 122.525C129.981 122.927 129.739 123.445 129.337 123.65Z" fill="white"/>
<path d="M148.3 113.702C148.121 113.793 147.919 113.839 147.717 113.774C147.178 113.711 146.793 113.175 146.856 112.637C147.215 109.808 146.744 106.896 145.447 104.462C145.196 103.971 145.393 103.364 145.885 103.113C146.376 102.863 146.983 103.06 147.234 103.551C148.713 106.343 149.3 109.702 148.877 112.957C148.767 113.295 148.568 113.565 148.3 113.702Z" fill="white"/>
<path d="M75.7508 105.207C60.66 85.3206 62.4957 56.1299 87.5189 38.3079C117.337 17.0846 144.329 27.4145 157.844 52.2695C170.859 76.2538 173.516 92.0659 139.356 111.507C120.958 122.011 92.8808 127.769 75.7508 105.207Z" fill="#414447"/>
<path d="M136.73 114.084C129.939 117.545 119.118 121.823 107.097 121.76C93.7755 121.684 82.9241 116.297 74.9258 105.797C67.0405 95.4075 63.7357 82.8522 65.6342 70.346C67.6185 57.3458 74.9751 45.9408 86.9068 37.438C100.958 27.461 115.237 23.7839 128.335 26.8439C140.714 29.7077 151.481 38.5718 158.67 51.7921C165.269 63.9629 169.295 74.0682 167.217 83.7949C165.098 93.8808 156.378 102.942 139.811 112.4C138.963 112.945 137.891 113.491 136.73 114.084ZM76.5087 104.596C84.0769 114.584 94.3878 119.684 107.081 119.742C120.695 119.838 132.85 114.091 138.856 110.636C154.909 101.495 163.274 92.841 165.263 83.384C167.188 74.2416 163.322 64.5612 156.906 52.7477C149.99 40.0636 139.674 31.5323 127.88 28.821C115.366 25.9134 101.601 29.4967 88.0412 39.1111C76.5553 47.2741 69.4642 58.206 67.5876 70.6448C65.8197 82.6341 68.9633 94.6525 76.5087 104.596Z" fill="white"/>
<path d="M72.4569 96.8678C72.0101 97.0955 71.4258 96.9431 71.1534 96.5191C63.4565 84.4017 53.7484 73.197 43.1379 64.1971C42.7315 63.8415 42.6815 63.1915 43.0372 62.785C43.3928 62.3786 44.0428 62.3287 44.4493 62.6843C55.1955 71.8402 65.0394 83.2008 72.8274 95.4969C73.1226 95.9656 72.993 96.5945 72.5243 96.8897C72.5015 96.845 72.4569 96.8678 72.4569 96.8678Z" fill="white"/>
<path d="M38.9613 63.512C38.0521 61.9493 38.5523 59.9495 40.115 59.0402C41.6778 58.131 43.6776 58.6312 44.5868 60.194C45.496 61.7567 44.9958 63.7566 43.4331 64.6658C41.8703 65.575 39.8705 65.0748 38.9613 63.512Z" fill="#414447"/>
<path d="M43.7099 65.6505C41.6995 66.6753 39.2494 65.9543 38.0906 64.0123C37.5221 63.0075 37.3338 61.8653 37.6167 60.7642C37.8997 59.6631 38.6101 58.7381 39.6149 58.1696C41.6463 56.9652 44.2531 57.6625 45.4576 59.6939C46.662 61.7253 45.9647 64.3322 43.9333 65.5366C43.8439 65.5821 43.7546 65.6277 43.7099 65.6505ZM40.7492 59.8427C40.7045 59.8655 40.6599 59.8883 40.6152 59.9111C40.1019 60.229 39.7243 60.7029 39.5719 61.2872C39.4195 61.8714 39.5141 62.4986 39.832 63.012C40.15 63.5253 40.6239 63.9028 41.2081 64.0553C41.7924 64.2077 42.4196 64.1131 42.9329 63.7951C43.4463 63.4772 43.8238 63.0033 43.9762 62.419C44.1287 61.8347 44.0341 61.2075 43.7161 60.6942C43.3981 60.1809 42.9242 59.8033 42.34 59.6509C41.8232 59.5204 41.2406 59.5922 40.7492 59.8427Z" fill="white"/>
<path d="M70.9675 86.9893C70.9229 87.0121 70.9229 87.0121 70.8782 87.0348C70.4989 87.2845 67.27 90.2251 67.27 90.2251L68.7022 92.7032C68.7705 95.7078 69.9433 99.4438 72.0797 103.083C74.0795 106.453 76.5453 109.193 78.9796 110.766L80.6167 113.646C80.6167 113.646 85.5598 111.97 85.6492 111.925C89.1093 109.88 88.6268 102.64 84.5589 95.7641C80.5138 88.9332 74.383 84.9667 70.9675 86.9893Z" fill="#414447"/>
<path d="M86.1055 112.931C85.9715 112.999 85.4573 113.205 80.8944 114.743C80.4248 114.926 79.9299 114.728 79.7022 114.281L78.1561 111.58C75.5633 109.806 73.0747 107.022 71.1424 103.673C69.0288 100.079 67.7885 96.321 67.651 93.0703L66.3546 90.7481C66.1496 90.346 66.2127 89.8073 66.5692 89.513C67.7492 88.4049 69.7534 86.5952 70.2887 86.2098C70.3333 86.187 70.3333 86.187 70.378 86.1642C70.4227 86.1414 70.4674 86.1187 70.512 86.0959C72.5434 84.8915 75.2379 85.319 78.168 87.2024C80.8729 88.9754 83.4517 91.8258 85.5198 95.3306C89.7944 102.833 90.1236 110.545 86.1055 112.931ZM81.0118 112.544C82.6893 111.97 84.7469 111.259 85.1271 111.122C87.6937 109.532 87.7122 103.275 83.6216 96.3546C79.5529 89.3669 74.0124 86.3377 71.4002 87.8382C71.4002 87.8382 71.3556 87.861 71.3109 87.8838C71.0656 88.0651 69.7516 89.2415 68.4377 90.4179L69.4608 92.204C69.5291 92.338 69.5527 92.4948 69.5764 92.6516C69.6665 95.5888 70.8385 99.2127 72.8383 102.583C74.6795 105.754 77.0096 108.337 79.4219 109.978C79.5796 110.066 79.6479 110.2 79.7609 110.311L81.0118 112.544Z" fill="white"/>
<path d="M81.3355 113.423C84.5615 111.533 84.1129 104.771 80.3334 98.3185C76.5539 91.8665 70.8749 88.168 67.6488 90.0577C64.4228 91.9474 64.8715 98.7098 68.6509 105.162C72.4304 111.614 78.1095 115.312 81.3355 113.423Z" fill="#414447"/>
<path d="M81.5876 114.446C79.7112 115.403 77.2638 115.018 74.6263 113.267C72.1017 111.627 69.6587 108.932 67.7719 105.673C63.613 98.6187 63.3547 91.377 67.1275 89.1723C70.9004 86.9675 77.0522 90.7545 81.2112 97.8087C83.098 101.068 84.291 104.513 84.4714 107.516C84.6763 110.789 83.753 113.173 81.8556 114.309C81.7663 114.355 81.6769 114.4 81.5876 114.446ZM68.2619 90.8454C68.2172 90.8682 68.1725 90.8909 68.1279 90.9137C65.6944 92.3231 65.6952 98.1763 69.5134 104.673C71.2635 107.664 73.4805 110.136 75.7572 111.621C77.7859 112.951 79.6499 113.295 80.8553 112.568C82.0606 111.841 82.6747 110.064 82.4987 107.621C82.2981 104.909 81.2646 101.778 79.5144 98.7863C75.7199 92.4468 70.719 89.5928 68.2619 90.8454Z" fill="white"/>
<path d="M78.4786 108.529C79.9841 107.647 79.3889 103.832 77.1492 100.009C74.9095 96.1854 71.8735 93.8008 70.368 94.6827C68.8625 95.5645 69.4577 99.3789 71.6974 103.202C73.9371 107.026 76.9731 109.41 78.4786 108.529Z" fill="#414447"/>
<path d="M78.8122 109.444C78.142 109.786 76.7536 110.043 74.6776 108.4C73.2787 107.312 71.9201 105.641 70.7613 103.699C69.6024 101.756 68.8465 99.7216 68.5863 97.9968C68.1388 95.2418 69.1847 94.2021 69.7874 93.8386C70.4347 93.4523 71.8222 93.0827 74.0113 94.8373C75.4102 95.9252 76.7688 97.5966 77.9276 99.5387C79.0865 101.481 79.8424 103.516 80.1026 105.24C80.5501 107.995 79.5042 109.035 78.9015 109.399C78.9015 109.399 78.8568 109.421 78.8122 109.444ZM70.877 95.5345C70.6537 95.6483 70.3891 96.2335 70.6247 97.6894C70.8603 99.1452 71.547 100.934 72.5474 102.675C73.5477 104.417 74.7924 105.865 75.9434 106.798C77.0717 107.686 77.7672 107.725 77.9459 107.634C78.1246 107.543 78.4338 106.935 78.1982 105.479C77.9626 104.024 77.2759 102.235 76.2755 100.493C75.2752 98.752 74.0305 97.304 72.8795 96.3711C71.7066 95.5056 71.0557 95.4434 70.877 95.5345Z" fill="white"/>
<path d="M132.691 30.4206C116.21 30.6612 83.8085 45.6029 81.6856 66.7224C79.5181 87.8648 94.8611 111.338 113.868 112.849C125.604 113.789 159.412 95.0913 166.779 82.1612C175.982 65.9875 153.478 30.124 132.691 30.4206Z" fill="#414447"/>
<path d="M137.164 106.433C128.809 110.692 119.396 114.308 113.764 113.859C105.775 113.204 97.9359 108.757 91.6878 101.248C83.7193 91.6893 79.4895 78.4236 80.6757 66.6181C81.6544 56.9448 88.9584 47.4241 101.301 39.8375C111.456 33.5912 123.781 29.5033 132.661 29.3668C138.065 29.2574 143.913 31.5665 149.554 35.8957C154.63 39.7807 159.427 45.3274 163.086 51.511C170.063 63.32 171.816 75.2595 167.635 82.6255C164.161 88.73 154.736 96.5181 142.456 103.566C140.759 104.543 138.951 105.522 137.164 106.433ZM107.437 38.7357C95.0622 45.0442 83.882 55.0212 82.651 66.8494C81.5278 78.1161 85.529 90.823 93.1804 99.9805C99.0887 107.044 106.41 111.247 113.883 111.884C125.036 112.784 158.488 94.605 165.811 81.6978C169.638 74.9625 167.892 63.8079 161.278 52.6015C153.574 39.5871 142.364 31.2871 132.632 31.4078C125.838 31.5504 116.327 34.2036 107.437 38.7357Z" fill="white"/>
<path d="M135.401 32.8664C120.402 33.3646 90.6161 47.2542 88.319 66.155C86.0218 85.0557 99.5946 105.829 116.893 106.86C127.573 107.494 158.723 90.2078 165.629 78.582C174.351 63.8922 154.391 32.2475 135.401 32.8664Z" fill="#414447"/>
<path d="M138.376 100.862C129.753 105.257 121.433 108.148 116.857 107.892C109.43 107.456 102.29 103.498 96.6534 96.7466C89.5223 88.1681 86.0467 76.713 87.3092 66.0507C88.385 57.341 95.2028 48.7435 106.563 41.7701C115.915 36.0458 127.21 32.1453 135.349 31.8801C140.281 31.7295 145.612 33.6839 150.71 37.5014C155.266 40.9196 159.566 45.8198 162.815 51.3113C169.02 61.8257 170.403 72.4898 166.441 79.1812C162.302 86.188 150.036 94.9177 138.376 100.862ZM112.453 40.7374C101.017 46.5677 90.5697 55.6644 89.3072 66.3267C88.0842 76.2934 91.5125 87.4349 98.1908 95.4563C103.443 101.784 110.11 105.478 116.953 105.873C127.117 106.489 157.889 89.676 164.751 78.0731C168.314 72.0351 166.937 62.1559 161.119 52.2889C155.551 42.9133 145.476 33.5279 135.409 33.8755C129.266 34.0804 120.629 36.5697 112.453 40.7374Z" fill="white"/>
<path d="M97.6072 80.951C95.7317 82.0197 94.9222 84.6274 95.8796 86.6159C96.8143 88.5597 99.401 89.5487 101.39 88.7034C103.38 87.8582 104.526 85.3599 103.815 83.3023C103.127 81.2893 100.398 79.3595 97.6072 80.951Z" fill="#414447"/>
<path d="M102.114 89.4603C101.98 89.5287 101.89 89.5742 101.756 89.6425C99.2528 90.6936 96.1711 89.5066 94.9413 87.0942C93.7562 84.659 94.718 81.467 97.0849 80.1478C98.469 79.3297 100.083 79.1826 101.5 79.7546C103.029 80.3257 104.228 81.5723 104.755 83.0483C105.581 85.4415 104.392 88.2988 102.114 89.4603ZM98.2859 81.7307C98.2412 81.7535 98.1518 81.799 98.1072 81.8218C96.7231 82.6399 96.0889 84.7081 96.773 86.1605C97.5018 87.5901 99.5261 88.3592 101.024 87.7644C102.522 87.1697 103.426 85.1891 102.921 83.6457C102.622 82.7285 101.808 81.9051 100.841 81.5538C100.234 81.3567 99.3134 81.2069 98.2859 81.7307Z" fill="white"/>
<path d="M115.252 57.3781C97.1854 64.2244 102.854 75.012 99.0098 76.7464C94.8752 78.5727 91.7009 65.5005 98.0475 56.8618C101.443 52.2604 107.244 48.5149 113.041 46.9672C120.091 45.1181 124.174 54.0119 115.252 57.3781Z" fill="#414447"/>
<path d="M99.5544 77.5944C99.5097 77.6172 99.4651 77.6399 99.4204 77.6627C98.0793 78.2338 96.6856 77.8186 95.6213 76.5037C92.8586 73.0716 92.087 63.2774 97.2352 56.2627C100.697 51.5711 106.632 47.6451 112.831 46.0046C115.965 45.1952 119.942 46.2631 121.137 49.9317C122.056 52.7278 120.672 56.4165 115.686 58.3391C103.835 62.8046 102.649 68.981 101.896 73.0236C101.463 75.0454 101.118 76.7973 99.5544 77.5944ZM107.839 50.0129C104.176 51.8804 100.944 54.4846 98.8365 57.4164C94.0877 63.8897 95.0529 72.6284 97.1587 75.2135C97.8831 76.0824 98.3973 75.8766 98.576 75.7855C99.2689 75.4886 99.5072 74.4102 99.8742 72.5909C100.649 68.3687 102.007 61.3163 114.931 56.4164C118.978 54.8598 119.787 52.2521 119.191 50.5299C118.57 48.651 116.383 47.1206 113.295 47.9072C111.415 48.4152 109.581 49.1247 107.839 50.0129Z" fill="white"/>
<path d="M80.3406 167.539C86.5575 159.529 95.1658 153.34 104.738 149.923C106.885 149.167 108.417 147.204 108.556 144.937C108.819 141.258 108.228 137.338 106.765 133.806C105.143 129.961 102.403 126.574 98.615 124.002C96.7212 122.716 94.2536 122.623 92.2204 123.603C79.7535 129.621 69.3363 139.659 63.3743 151.591C69.9457 154.545 75.7691 159.344 80.3406 167.539Z" fill="#414447"/>
<path d="M80.7963 168.432C80.6176 168.523 80.4608 168.547 80.2812 168.526C79.9449 168.528 79.6514 168.284 79.4701 168.039C75.3085 160.648 70.0449 155.733 62.933 152.492C62.7079 152.381 62.4819 152.159 62.4127 151.913C62.3435 151.667 62.3636 151.375 62.474 151.15C68.4807 139.195 79.187 128.84 91.8326 122.731C94.2232 121.569 97.0727 121.748 99.2372 123.234C103.092 125.828 106.013 129.349 107.772 133.461C109.234 136.993 109.917 141.092 109.634 145.064C109.475 147.733 107.677 150.057 105.149 150.952C95.7564 154.277 87.2821 160.398 81.1984 168.227C81.0416 168.251 80.9303 168.364 80.7963 168.432ZM64.6937 151.088C71.2669 154.266 76.4403 159.114 80.5064 165.766C86.7268 158.204 95.18 152.263 104.416 148.961C106.228 148.319 107.426 146.695 107.614 144.855C107.877 141.175 107.242 137.39 105.871 134.149C104.294 130.394 101.578 127.163 98.0607 124.791C96.505 123.726 94.4185 123.608 92.6534 124.452C80.7007 130.263 70.5944 139.918 64.6937 151.088Z" fill="white"/>
<path d="M85.7805 166.285C88.3315 159.807 86.3878 152.13 82.0177 146.759C79.6632 143.907 76.5272 141.509 72.8885 140.775C69.2497 140.041 65.1326 141.239 62.8069 144.958C70.7754 151.646 78.4558 158.762 85.7805 166.285Z" fill="#414447"/>
<path d="M86.2361 167.179C86.1468 167.224 86.0574 167.27 85.99 167.248C85.6317 167.318 85.2944 167.209 85.0684 166.986C77.9023 159.664 70.1991 152.502 62.1403 145.748C61.7567 145.437 61.6849 144.854 61.9284 144.449C64.2095 140.753 68.613 138.902 73.0603 139.787C77.5303 140.716 80.8055 143.718 82.7528 146.103C87.6887 152.142 89.254 160.181 86.6802 166.615C86.6373 166.862 86.4595 167.065 86.2361 167.179ZM64.1288 144.79C71.556 151.079 78.6942 157.684 85.34 164.427C86.867 158.921 85.2912 152.407 81.2154 147.393C79.4495 145.254 76.558 142.563 72.6494 141.741C69.9768 141.246 66.4152 141.767 64.1288 144.79Z" fill="white"/>
<path d="M70.707 154.27C65.6571 153.749 60.4284 156.189 57.1846 160.094C53.6036 161.019 50.5534 163.869 49.4146 167.376C48.91 168.815 48.7882 170.453 49.4715 171.793C50.1547 173.134 51.911 174.039 53.274 173.401C54.5477 172.808 54.9839 171.235 55.5796 169.974C56.1525 168.669 57.3754 167.314 59.5093 167.746C63.8759 172.668 69.9165 173.697 74.1423 169.179C74.0748 169.157 75.757 154.791 70.707 154.27Z" fill="#414447"/>
<path d="M71.8992 172.067C70.5589 172.75 69.1486 173.075 67.6682 173.042C64.5953 172.976 61.5111 171.453 58.9104 168.67C57.4966 168.546 56.7861 169.471 56.3893 170.349C56.3236 170.551 56.2351 170.709 56.1247 170.934C55.5965 172.217 55.0245 173.634 53.5721 174.318C51.5836 175.275 49.3088 174.015 48.4206 172.273C47.5096 170.486 47.8749 168.442 48.3129 167.093C49.5174 163.383 52.7454 160.331 56.4596 159.225C60.038 155.093 65.5593 152.785 70.6539 153.284C71.6639 153.388 72.475 153.875 73.1766 154.699C74.445 156.304 75.1633 159.259 75.1965 163.52C75.2428 166.592 74.9266 169.173 74.9274 169.285C74.9292 169.509 74.796 169.69 74.6629 169.87C73.9525 170.795 72.9714 171.521 71.8992 172.067ZM56.7678 167.117C57.6166 166.684 58.6248 166.564 59.6357 166.78C59.838 166.846 60.0404 166.912 60.1989 167.112C62.4387 169.629 65.0736 171.044 67.698 171.113C69.6944 171.165 71.5716 170.32 73.1072 168.806C73.42 165.776 74.6291 158.283 72.7037 155.831C72.3639 155.385 71.087 154.685 70.6604 154.621C66.1045 154.186 61.0847 157.036 57.9294 160.784C57.7963 160.964 57.6176 161.055 57.4161 161.102C54.1934 161.956 51.4104 164.557 50.3364 167.75C50.0079 168.762 49.7503 170.244 50.3425 171.405C50.7752 172.254 51.9691 172.94 52.8179 172.507C53.5327 172.143 53.9515 171.198 54.3921 170.185C54.4578 169.983 54.5682 169.758 54.6339 169.555C55.1183 168.408 55.8743 167.572 56.7678 167.117Z" fill="white"/>
<path d="M65.0201 155.481C61.0888 151.744 54.9631 151.32 49.702 152.483C46.7018 153.112 43.3723 154.64 42.5882 157.629C42.3053 158.73 42.4498 160.007 43.2635 160.831C44.6195 162.166 46.9014 161.453 48.8049 161.101C52.5216 160.332 56.5204 161.221 59.6099 163.417" fill="#414447"/>
<path d="M60.0651 164.31C59.7524 164.47 59.3486 164.45 59.0105 164.229C56.1688 162.188 52.4399 161.387 49.0139 162.064C48.8125 162.11 48.611 162.157 48.4095 162.203C46.5288 162.599 44.2005 163.111 42.6185 161.553C41.6243 160.597 41.2529 158.985 41.6445 157.434C42.3847 154.58 45.1493 152.496 49.5152 151.565C56.1419 150.1 62.0494 151.31 65.7547 154.824C66.1612 155.18 66.1664 155.853 65.8108 156.259C65.4551 156.666 64.7824 156.671 64.3759 156.315C59.8122 152 52.7554 152.952 49.9794 153.579C47.8972 154.022 44.3854 155.193 43.6224 158.002C43.3824 158.856 43.5462 159.729 44.0209 160.219C44.8794 161.02 46.4465 160.671 47.9689 160.345C48.1704 160.299 48.3719 160.253 48.618 160.183C52.5809 159.345 56.8942 160.298 60.1869 162.672C60.638 163.005 60.7326 163.632 60.3997 164.083C60.3104 164.129 60.1991 164.242 60.0651 164.31Z" fill="white"/>
<path d="M70.1755 155.216C67.6851 152.208 65.172 149.155 62.0808 146.735C58.9895 144.315 55.3201 142.527 51.3722 142.4C50.2956 142.386 49.1524 142.463 48.1696 142.964C47.1868 143.465 46.3642 144.39 46.3055 145.49C46.2021 146.612 46.8608 147.683 47.7184 148.372C48.5759 149.06 49.656 149.523 50.6239 149.986C55.3059 152.215 59.458 155.502 62.6517 159.558" fill="#414447"/>
<path d="M63.1977 160.518C62.7956 160.723 62.2341 160.616 61.9398 160.259C58.8591 156.314 54.7973 153.093 50.273 150.953L49.8455 150.777C48.9003 150.359 47.9552 149.94 47.1423 149.229C45.9011 148.229 45.2397 146.821 45.3414 145.475C45.443 144.129 46.3751 142.865 47.7372 142.115C48.7201 141.614 49.907 141.403 51.3874 141.436C56.1202 141.556 60.1313 144.014 62.6584 145.99C65.8399 148.477 68.3985 151.619 70.8888 154.628C71.2287 155.073 71.1884 155.657 70.7653 156.041C70.3194 156.381 69.736 156.341 69.3515 155.918C66.9514 152.976 64.4611 149.968 61.4373 147.57C59.158 145.749 55.5307 143.601 51.3584 143.477C50.2144 143.441 49.3411 143.605 48.671 143.946C47.9115 144.334 47.4008 144.988 47.3386 145.639C47.3 146.446 47.8668 147.227 48.4309 147.671C49.0852 148.182 49.8508 148.579 50.7057 148.932L51.156 149.152C55.9729 151.425 60.2826 154.8 63.5674 159.035C63.9073 159.481 63.8223 160.087 63.3764 160.427C63.3317 160.45 63.2424 160.496 63.1977 160.518Z" fill="white"/>
<path d="M81.2008 159.84C79.06 155.64 73.3313 148.598 69.7635 145.464C66.2632 142.352 61.3806 140.282 56.5207 141.127C54.5944 141.433 52.3616 142.684 52.3536 144.546C52.3396 145.622 53.0868 146.536 53.9881 147.089C54.8895 147.643 55.9459 147.949 56.9804 148.322C60.5789 149.64 63.5598 152.285 65.2678 155.636" fill="#414447"/>
<path d="M81.6558 160.733C81.1644 160.984 80.5573 160.787 80.3068 160.295C78.166 156.096 72.4382 149.166 69.1411 146.231C65.4603 142.986 60.8282 141.407 56.7523 142.134C55.1397 142.393 53.4657 143.416 53.4525 144.604C53.4577 145.277 54.0683 145.923 54.6315 146.255C55.2175 146.631 55.892 146.85 56.634 147.091C56.9038 147.179 57.1736 147.266 57.4434 147.354C61.2669 148.782 64.451 151.605 66.2502 155.135C66.5007 155.626 66.3036 156.233 65.8122 156.484C65.3208 156.734 64.7137 156.537 64.4632 156.046C62.8918 152.963 60.0467 150.473 56.718 149.244C56.4482 149.156 56.2231 149.046 55.9761 149.003C55.1667 148.74 54.3345 148.432 53.5908 147.967C52.2611 147.125 51.4667 145.898 51.4789 144.597C51.4825 142.175 54.0491 140.585 56.4904 140.185C61.2382 139.341 66.3871 141.05 70.5873 144.762C74.0421 147.785 79.9968 155.05 82.2287 159.428C82.3443 159.876 82.1472 160.483 81.6558 160.733Z" fill="white"/>
<path d="M73.131 148.869C75.7107 151.832 78.5961 153.738 80.5223 156.302C82.4485 158.866 83.3735 162.447 81.9605 165.306C81.0774 167.107 79.428 168.398 77.5727 169.175C75.7173 169.952 74.5768 170.364 72.5814 170.425" fill="#414447"/>
<path d="M78.8334 169.771C78.5654 169.907 78.2973 170.044 78.0065 170.136C76.1065 170.936 74.8319 171.416 72.6569 171.456C72.0963 171.46 71.6443 171.015 71.5953 170.477C71.5909 169.917 72.0359 169.465 72.5737 169.416C74.4124 169.379 75.3961 168.99 77.2068 168.236C78.9727 167.504 80.376 166.282 81.0602 164.864C82.1859 162.546 81.6682 159.432 79.6973 156.891C78.7005 155.598 77.4356 154.442 76.0805 153.219C74.8384 152.107 73.5508 150.906 72.3288 149.503C71.9443 149.08 72.0065 148.429 72.4524 148.089C72.8755 147.705 73.5263 147.767 73.8662 148.213C75.0426 149.527 76.2628 150.706 77.4821 151.773C78.8828 153.085 80.2151 154.263 81.3477 155.712C83.7495 158.878 84.3407 162.798 82.884 165.792C82.1341 167.412 80.7097 168.814 78.8334 169.771Z" fill="white"/>
<path d="M80.205 155.9C82.1987 158.486 82.6708 161.51 85.0113 162.568C86.2718 163.164 87.7102 163.557 88.8603 164.377C90.0323 165.131 90.9389 166.357 90.7033 167.772C90.5324 168.872 89.688 169.865 88.6386 170.457C87.6119 171.093 86.4031 171.371 85.1925 171.425C81.2252 171.703 77.4875 169.781 75.938 166.631" fill="#414447"/>
<path d="M88.7818 171.509C87.799 172.01 86.6576 172.311 85.3129 172.434C80.9646 172.737 76.8441 170.616 75.1124 167.108C74.8619 166.617 75.059 166.01 75.5504 165.759C76.0418 165.509 76.6489 165.706 76.8994 166.197C78.3114 168.967 81.6217 170.713 85.1851 170.416C86.3729 170.317 87.3575 170.04 88.1836 169.563C89.0543 169.063 89.6088 168.274 89.7603 167.577C89.975 166.342 88.7118 165.41 88.3509 165.144C87.6747 164.701 86.8872 164.37 86.0323 164.018C85.5374 163.82 85.1099 163.644 84.615 163.446C82.8595 162.652 82.0397 161.044 81.1742 159.346C80.6732 158.364 80.1722 157.381 79.425 156.467C79.0851 156.021 79.1701 155.415 79.616 155.075C80.0618 154.735 80.668 154.82 81.0079 155.266C81.8234 156.314 82.4155 157.475 82.9166 158.458C83.6909 159.977 84.283 161.139 85.4086 161.691C85.8361 161.867 86.2636 162.043 86.7138 162.264C87.6362 162.638 88.5586 163.012 89.3925 163.543C91.0831 164.652 91.9258 166.304 91.6918 167.943C91.4553 169.246 90.546 170.554 89.162 171.372C89.0499 171.373 88.9158 171.441 88.7818 171.509Z" fill="white"/>
<path d="M92.9884 155.913C94.5836 150.541 93.5264 144.382 90.105 139.878C86.7282 135.352 81.1448 132.57 75.4703 132.48C77.1443 131.457 78.7736 130.458 80.3837 129.862C85.6596 130.606 90.6167 133.595 93.7009 137.989C96.7851 142.383 98.0621 147.98 97.1388 153.234C96.5913 154.921 94.8971 156.235 92.9884 155.913Z" fill="#414447"/>
<path d="M95.6163 156.431C94.7675 156.863 93.782 157.028 92.7939 156.856C92.5022 156.836 92.2762 156.614 92.1177 156.413C91.981 156.145 91.9565 155.876 91.9994 155.629C93.5071 150.527 92.4525 144.704 89.2798 140.468C86.1072 136.232 80.8164 133.582 75.4335 133.511C74.985 133.515 74.6014 133.204 74.4858 132.756C74.3701 132.309 74.5462 131.881 74.9255 131.632C76.5995 130.609 78.3401 129.497 80.0176 128.923C80.1516 128.855 80.3312 128.876 80.488 128.852C86.0109 129.639 91.2387 132.828 94.5033 137.355C97.7907 141.926 99.0695 147.747 98.1041 153.361C98.0822 153.429 98.105 153.474 98.0603 153.496C97.667 154.822 96.7332 155.861 95.6163 156.431ZM94.3033 154.849C95.1757 154.573 95.8651 153.827 96.1726 152.995C97.0084 148.01 95.7777 142.615 92.8757 138.578C89.9737 134.542 85.3767 131.707 80.4818 130.938C79.8782 131.189 79.23 131.464 78.6274 131.827C83.4785 132.731 88.0072 135.432 90.9302 139.289C94.2159 143.636 95.45 149.48 94.3033 154.849Z" fill="white"/>
<path d="M85.5446 127.288C84.9104 126.486 83.0673 125.962 82.0556 125.633C78.1593 126.381 74.8787 128.447 72.8158 131.357C72.4277 133.355 72.7097 135.013 73.7766 136.664C76.9591 133.522 81.6368 129.449 85.5446 127.288Z" fill="#414447"/>
<path d="M74.2546 137.602C74.0759 137.693 73.8745 137.74 73.6949 137.719C73.4032 137.699 73.1325 137.499 72.9512 137.254C71.7704 135.379 71.442 133.52 71.8502 131.23C71.894 131.095 71.9378 130.96 72.0263 130.802C74.2443 127.645 77.7482 125.465 81.8907 124.648C82.0475 124.624 82.2271 124.645 82.4066 124.666L82.6764 124.754C84.205 125.213 85.6442 125.717 86.3914 126.631C86.5727 126.876 86.6647 127.167 86.5771 127.437C86.5122 127.751 86.3344 127.955 86.0891 128.136C82.2261 130.274 77.593 134.324 74.5446 137.398C74.4333 137.511 74.344 137.557 74.2546 137.602ZM73.8054 131.753C73.5907 132.988 73.666 134.019 74.055 135.002C76.0137 133.103 79.8216 129.642 83.6601 127.235C83.0977 127.015 82.4232 126.796 82.0185 126.665C78.5707 127.41 75.6695 129.226 73.8054 131.753Z" fill="white"/>
</svg>
