<?xml version="1.0" encoding="utf-8"?>
<!-- Generator: Adobe Illustrator 25.4.1, SVG Export Plug-In . SVG Version: 6.00 Build 0)  -->
<svg version="1.1" id="Слой_1" xmlns="http://www.w3.org/2000/svg" xmlns:xlink="http://www.w3.org/1999/xlink" x="0px" y="0px"
	 viewBox="0 0 500 148" style="enable-background:new 0 0 500 148;" xml:space="preserve">
<style type="text/css">
	.st0{fill:#FFFFFF;}
	.st1{fill-rule:evenodd;clip-rule:evenodd;fill:#FFFFFF;}
</style>
<g>
	<g>
		<path class="st0" d="M194.1,79.2v9.1L190,96V52.8h-2.7v52.9h-13V42.3h43.6c5,0,9.2,1.2,12.6,3.6c3,2.2,5.1,5.1,6.2,8.6
			c1,3.4,1,6.9-0.2,10.3c-1.2,3.5-3.4,6.3-6.5,8.5c3.9,1.7,6.7,4.4,8.4,8.1c1.6,3.4,2.1,7,1.2,10.8c-0.8,3.9-2.8,7-5.9,9.4
			c-3.5,2.7-7.8,4.1-13.1,4.1h-32.1l5.3-10.4h26.8c1.6,0,3-0.6,4.2-1.9c1.6-1.6,2.4-3.7,2.4-6.1c0-2.4-0.8-4.4-2.4-6.1
			c-1.3-1.3-2.7-1.9-4.2-1.9H194.1z M194.1,79.2l5.2-10.4h18.5c1.6,0,3-0.6,4.2-1.9c1.6-1.6,2.4-3.7,2.4-6.1c0-2.4-0.8-4.4-2.4-6.1
			c-1.3-1.3-2.7-1.9-4.2-1.9h-23.7V79.2z"/>
		<path class="st0" d="M250.6,55.8v43.7l-3.2,6V55.8H250.6z M263,105.7h-10.3V55.8H263V105.7z"/>
		<path class="st0" d="M300.6,64h-1.9v41.7h-10.3V64h-19.6v-8.2h49.5V64h-14.5v35.7l-3.2,6V64z"/>
		<path class="st0" d="M346.6,95.2h19.8l5.2,10.4h-52.2l31.5-63.3h8.8l31.5,63.3h-14l-17.8-35.9L346.6,95.2z M357.1,65.3l-1.8-3.6
			l-16.7,33.6h3.6L357.1,65.3z"/>
		<path class="st0" d="M406.8,64h-2.2v41.6h-10.3V55.8h26c7.3,0,13.6,2.6,18.7,7.7c4.8,4.8,7.2,10.6,7.2,17.2
			c0,6.7-2.4,12.4-7.2,17.3c-5.1,5.1-11.4,7.7-18.7,7.7h-14.8l4.2-8.2h10.7c4.1,0,7.7-1.5,10.7-4.6c3.3-3.3,5-7.3,5-12.1
			c0-4.8-1.7-8.8-5-12.2c-3-3-6.6-4.5-10.7-4.5H410v28l-3.2,6V64z"/>
		<path class="st0" d="M494.7,55.8l-3.4,8.2h-24.7c-1.6,0-2.8,0.5-3.8,1.5c-0.9,1-1.4,2.2-1.4,3.8c0,2.3,1.7,4.1,5.1,5.3
			c2,0.8,5.2,1.6,9.4,2.6c4.3,1,7.9,2.2,11,3.5c6.1,2.7,9.1,7,9,12.7c-0.1,3.9-1.7,6.9-4.9,9.2c-2.9,2-6.4,3-10.4,3h-30.9l3.4-8.2
			h27.4c1.5,0,2.7-0.3,3.5-0.9c1-0.7,1.5-1.7,1.6-3.2c0-2.5-1.2-4.3-3.8-5.4c-2.1-1-5.8-2-10.8-3.1c-5.1-1.1-9.2-2.4-12.2-3.9
			c-5.1-2.4-7.7-6.3-7.7-11.6c0-4.1,1.6-7.4,4.7-10c2.9-2.4,6.5-3.5,10.7-3.5H494.7z M470.6,64c-1.6,0-2.8,0.5-3.8,1.5
			c-0.9,1-1.4,2.2-1.4,3.8c0,2.3,1.7,4.1,5.1,5.3c2,0.8,5.2,1.6,9.4,2.6c4.3,1,7.9,2.2,11,3.5c6.1,2.7,9.1,7,9,12.7
			c-0.1,3.9-1.7,6.9-4.9,9.2c-2.9,2-6.4,3-10.4,3h-2c4,0,7.5-1,10.4-3c3.2-2.3,4.9-5.3,4.9-9.2c0.1-5.7-2.9-10-9-12.7
			c-3.1-1.4-6.8-2.6-11-3.5s-7.4-1.8-9.4-2.6c-3.4-1.2-5.1-3-5.1-5.3c0-1.6,0.5-2.9,1.4-3.8c0.9-1,2.2-1.5,3.8-1.5H470.6z
			 M496.7,55.8h2l-3.4,8.2h-2L496.7,55.8z"/>
	</g>
	<g>
		<path class="st0" d="M32.5,83.7l1-20.4c0.3-0.1,0.7-0.3,1.1-0.4l-1.1,20.8L32.5,83.7L32.5,83.7z M34.1,52l0.3-6.1l30-0.2
			c-2.7,0.3-5.4,0.7-8.1,1.1L35.4,47l-0.2,4.7C34.8,51.8,34.4,51.9,34.1,52L34.1,52z M66.9,45.5l16.8-14.7l0.7,0.8L68.6,45.3
			C68,45.4,67.4,45.4,66.9,45.5L66.9,45.5z"/>
		<path class="st0" d="M48.5,77.5l2.4-20.1c0.4-0.1,0.7-0.2,1.1-0.3l-2.3,19.1l13.4-2.7c0.1,0.3,0.2,0.7,0.2,1L48.5,77.5L48.5,77.5z
			 M52.1,47.6L55.5,20l27.9,10.4l-3.2-18.8l1-0.2L84.6,32L56.3,21.4l-3.2,26C52.8,47.4,52.5,47.5,52.1,47.6L52.1,47.6z M65.9,67.4
			l0.3-13.8l1-0.2l-0.3,16.2C66.5,68.8,66.2,68.1,65.9,67.4L65.9,67.4z"/>
		<path class="st0" d="M85.7,125.2l-34.6-13.1l13.1-34.7c0.2,0.5,0.3,1,0.5,1.6l-12.3,32.6l0,0l32.2,12.2l0-2.2
			c0.4,0.6,0.7,1.1,1.1,1.7L85.7,125.2L85.7,125.2z M69.5,75.5l15.4,13.2l0,0.2l0.4,16.1c-0.4-0.6-0.7-1.1-1.1-1.7l-0.3-14.1
			L70.4,77.6C70.1,76.9,69.8,76.2,69.5,75.5L69.5,75.5z"/>
		<polygon class="st0" points="35.3,46.8 34.5,46.2 55.6,20.2 80.5,11 80.8,12 56.2,21.1 35.3,46.8 		"/>
		<path class="st0" d="M85.3,125l-0.3-1l1-0.3c0.2,0.3,0.4,0.6,0.6,0.9L85.3,125L85.3,125z M96.6,120.9l21-5.7l22.1-26.5l0.8,0.7
			l-22.3,26.7l-20.9,5.6C97,121.4,96.8,121.2,96.6,120.9L96.6,120.9z"/>
		<path class="st0" d="M52.4,113.8L32.2,83.4l17.3-7.4L52.4,113.8L52.4,113.8z M33.8,83.9L33.8,83.9l17.3,26l-2.4-32.3L33.8,83.9
			L33.8,83.9z"/>
		<path class="st0" d="M52,112.3l-0.6-0.8l20.3-14.3l0.4,1L52,112.3L52,112.3z M78,92.7l6.1-4.3l0.6,0.8l-6.2,4.3L78,92.7L78,92.7z"
			/>
		<path class="st0" d="M118.3,116.5l-17.5-9.8L83.1,88.3l8.8,0.3c-0.3,0.3-0.6,0.7-0.8,1l-5.5-0.2l15.8,16.5l0,0l16,8.9l2.4-24.3
			l-24.4-0.8c0.8-0.3,1.5-0.6,2.3-1l22.7,0.7l19.6-0.9l0,1l-19.2,0.9L118.3,116.5L118.3,116.5z"/>
		<path class="st0" d="M89.2,16.9c0,0-0.1-4.2,2.7-3.4c2.8,0.7,4.5,1.4,5.5,1.8c1,0.5,2.9,0.2,2.9,0.2s2.9,0.5,3.1,0.7
			c0.2,0.3,3,1.9,3,1.9l5.1,0c-0.1,0-1.1,0.7-1.3,1.8c-0.3,1.1-2.5,1.1-2.5,1.1s-2,2.7-2.2,2.5c-0.2-0.2-2.2-0.9-2.2-0.9l-4.6,1.5
			c0,0-0.9,3.7-2,0.1c-1.1-3.6,1.8-3.7,1.8-3.7l0-1.9l-2.3-0.7l-2.3-1.4l-2.6-0.2L89.2,16.9L89.2,16.9z"/>
		<path class="st0" d="M132.5,33l-2.8,0.9c0,0-4.4-0.9-4.5-1c-0.2-0.1-2.8-2-2.8-2.2c0-0.2,0.4-1.3,1-0.9c0.6,0.3,2.4,1.2,2.9,1.6
			c0.4,0.4,1.4,0,1.4,0s-3.9-2.2-4.1-2.5c-0.2-0.2-2.8-1.9-2.8-1.9s-2.2-1.7-2.3-1.7c-0.2,0-5.7-0.7-6.9,0.1
			c-1.2,0.8-1.9,1.4-3.8,1.1c-1.8-0.3-7.4,1.4-4.7,3.7c2.6,2.4,2.4-1.8,3.4-0.5c1.1,1.3,0.1,2.2,0.1,2.2s0.6,2.9,1.7,2.5
			c1.1-0.4,1.4-2.4,2.3-2.1c1,0.4,2.3,0,2.2-0.5c-0.1-0.5-2.6-0.9-2.1-1.7c0.5-0.8,1.8-1.7,2.3-0.9c0.5,0.7,1.7,0.1,2.1-0.6
			c0.4-0.7,1.8-0.6,2.1,0.1c0.3,0.7-0.8,1.6-2.1,1.4c-1.3-0.2-1.8,2.2-0.7,2.5c1.1,0.3,4.9,1.4,5.4,1.4c0.6,0-1.4,2.5-2.4,1.4
			c-0.9-1.1-2.2-1.7-2.7-1c-0.5,0.6-1-0.4-1.3,0.9c-0.2,1.2-0.3,2.6-0.9,1.9c-0.6-0.7-2.2-2.1-2.9-1.5c-0.7,0.6-2,0.8-2.8-0.2
			c-0.8-1-1.4-2.8-1.9-2.1c-0.5,0.6-0.4,1.7-1.4,1.6c-1-0.1-1-0.9-1.8,0.2c-0.8,1.1-1.4,0.1-2.9,0.7c-1.5,0.7-1,1.3-2.6,1
			c-1.6-0.3-1.5-0.7-1.8-0.6c-0.3,0.1-1.5,0.5-1.5,0.5s1.1,1.4,1.4,1.8c0.2,0.3-0.3,3.3-0.5,3.5c-0.2,0.2-3.9-0.5-4.1-0.6
			c-0.2-0.1-2-0.3-2.2-0.2c-0.2,0.1-1.2,1.4-1.4,2.2c-0.1,0.3-0.4,0.9-0.6,1.5c3.1,0.1,6.1,0.2,8.9,0.5c1.1-0.3,2.7-0.7,2.7-0.7
			l0.2-1.9l2.4,1c0,0,1.6-0.5,1.8-0.5c0.2,0,2.2,1.1,2.2,1.1l0.7,1.9c0,0,2.2,1,2.1,2.1c-0.1,1.1-1.7,3-2.6,2.7
			c-0.9-0.3,1,1.2,2.1,0.2c1.1-1,2.5-0.4,2.2-1.8c-0.3-1.4-1.2-1.8-1.9-3c-0.7-1.2-1.8-2.6-1.3-2.8c0.5-0.2,0.5-1.1,1.5,0.4
			c1,1.4,1,2.4,2.2,2.5c1.2,0.1,2-0.6,1.5,1.3c-0.4,1.9-0.4,1.6,0.3,2.9c0.8,1.3,0.3,3.2,0.6,3.3c0.4,0.1,0.7-1.7,1.1-1.9
			c0.4-0.1,0.9-0.1,0.8-0.3c-0.1-0.2-1-1.2-0.9-1.4c0.1-0.2,0.9-0.6,1.1-0.5c0.2,0,1-0.3,1.1,0.6c0.2,0.9-0.1,0.6,0.5,1.7
			c0.7,1.1,0.4,1.4,0.3,2c-0.2,0.6,0.8,0.9,0.9,0.8c0.2-0.1,0.6,0.3,0.6,0.5c0,0.2,1.4,0.2,1.4,0.2s0.4,0.9,0.6,1
			c0.2,0.1,1.9-0.1,1.9-0.1s0,0.6,0,1.2c0,0.6-0.5,3.1-0.5,3.1s-1.5,1.7-2.2-0.4c-0.7-2.1-2.9-0.6-3.1-0.7c-0.2-0.1-2.3-1.6-2.6-1.7
			c-0.3-0.1-2.3-1.3-2.3-1.3s-2-0.4-2.1-0.3c0,0.2-0.9,1.9-0.9,1.9l-1.1-0.8l-1-1.3l-0.4-1c0,0-3.5-1.5-3.7-1.6
			c-0.3-0.1,0.4-1.5,0.4-1.5s1.1,0.1,1-0.1c0-0.2-0.8-1.9-0.8-1.9s-7.2-2.2-8.9-1.3c-1.6,0.9-3.2,0.8-3.9,0.2l-0.1,0l-3.6,0.7
			c-1.1,1.1-1.4,1.8-1.6,2.3c-0.1,0.6-7.1,2.6-7.5,6.9c-0.4,4.3-1.7,4.7-1.7,4.7s-1.3,2.9-0.1,3.6c1.2,0.7,0.9,0.2,1.3,2.2
			c0.4,2,0.3,2.6,2.1,4.1c1.8,1.5,2.6,2.5,3.3,2c0.8-0.5,2.8-0.2,3.4,0.5c0.5,0.7,3.9-2.1,4.9-0.2c1,1.8,3,4.1,3.8,3.8
			c0.8-0.3,2-1.3,1.1,0.8c-0.6,1.5,0.3,3.5,0.6,5.5c4.1-4.1,8.3-6.9,13.3-11.5c3.5-3.2,6.9-6.5,10.2-9.9l-0.6-2.2
			c0,0,0.6-0.2,0.9,0.2c0.3,0.4,1.1-0.5,1.1-0.5l0.2,0.8c1.8-1.9,3.6-3.8,5.3-5.8c4.3-4.8,8.5-10.1,12.2-15.5
			C135.9,38.5,134.3,35.7,132.5,33L132.5,33z M94.1,90.2c-0.6,3-1.4,6.9-2.1,7.3c-0.9,0.5,0.5,0.7,0.7,2.1c0.2,1.3-0.1,0.6-0.3,2.7
			c-0.1,2.1,1.6,3.7,1.3,4.8c-0.3,1.1,0.3,1.8,0.3,1.8l5.3,1.3l6-3.9c0,0,0.8-2.4,2-1.8l1.9-3.6l4.7-1.7l1.2-4.2l-0.4-0.6l0.8-3.6
			l11.9-11.1l-4.3,0l-3.1-5.5C111.2,81.6,101.9,87.4,94.1,90.2L94.1,90.2z M122.4,72.4l0.5,1.1l0.2,4.5c0,0,10-2.7,10.7-4.7
			c0.7-2-0.3-2.3-0.3-2.3l0-1.8c0,0-0.1,0.6-1.3,1c-1.2,0.4-3.1-0.9-2.6-1.5c0.5-0.6,0.1-1-0.1-1.6c-0.1-0.1-0.1-0.5-0.2-0.9
			C127,68.3,124.7,70.4,122.4,72.4L122.4,72.4z M130.8,64.7c1.9,2.3,1.7,3.4,3,4c1.3,0.6,0.6,1.9,0.6,1.9s4,0.4,4.1,1.5
			c0.1,1.1,0.9,3.3,1.4,3.4c0.6,0.1-0.9-0.2-0.5,1.9c0.4,2.1,0.2,2.9-0.1,4.2c-0.2,1-0.1,2,0.1,3.1c0.3-0.6,0.6-1.3,0.8-1.9
			c2.9-9.9,3.1-20,0.9-29.5C138.1,57.1,134.5,61,130.8,64.7L130.8,64.7z M125.1,53L125.1,53c-1.1-0.6-1.3-0.4-1.9-1.1
			c-0.6-0.7-2.3-2.2-2.9-1.8c-0.6,0.4-2.3,0-2.5,0.1c-0.2,0.1-1.5,0.2-0.8-1c0.6-1.2,0.8-1.3,1.5-2.3c0.7-1,0.3-1.6,1.5-0.8
			c1.2,0.9,1.1,0.7,1.7,1.3c0.6,0.6,1.3,0.1,1.3,0.1s2.2-0.6,2.4,0.1c0.1,0.7-0.6,0.1-0.8,0.9c-0.3,0.8,0,0.9,0.5,2
			c0.6,1.1,1.5,2.7,1.4,2.9C126.3,53.5,126.2,53.6,125.1,53L125.1,53z"/>
		<path class="st0" d="M50.1,47.9c-0.4-0.8-0.5-1.7-0.2-2.6c0.6-1.6,2.3-2.5,4-2c1.5,0.5,2.3,2,2.1,3.5C54,47.2,52.1,47.6,50.1,47.9
			L50.1,47.9z"/>
		<path class="st0" d="M63.7,45.8c0-0.2,0.1-0.4,0.1-0.6c0.6-1.6,2.3-2.5,4-2c1,0.3,1.7,1.1,2,2C67.7,45.4,65.7,45.6,63.7,45.8
			L63.7,45.8z"/>
		<path class="st0" d="M69.3,74.4c0,0.1-0.1,0.2-0.1,0.3c-0.6-1.5-1.2-2.9-1.9-4.2C68.9,71,69.8,72.8,69.3,74.4L69.3,74.4z
			 M63.4,74.6c-0.1-0.3-0.2-0.6-0.2-0.9C63.2,74,63.3,74.3,63.4,74.6L63.4,74.6z"/>
		<path class="st0" d="M87,32.2c-0.6,1.6-2.3,2.5-4,2c-1.6-0.6-2.5-2.3-2-4c0.6-1.6,2.3-2.5,4-2C86.6,28.8,87.5,30.6,87,32.2
			L87,32.2z"/>
		<path class="st0" d="M87.7,126.3c-0.8,1.1-2.2,1.6-3.6,1.2c-1.6-0.6-2.5-2.3-2-4c0.4-1.1,1.3-1.8,2.3-2.1
			C85.5,123.1,86.6,124.7,87.7,126.3L87.7,126.3z"/>
		<path class="st0" d="M120.8,116.7c-0.6,1.6-2.3,2.5-4,2c-1.6-0.6-2.5-2.3-2-4c0.6-1.6,2.3-2.5,4-2
			C120.5,113.2,121.3,115,120.8,116.7L120.8,116.7z"/>
		<path class="st0" d="M52.1,77.8c-0.6,1.6-2.3,2.5-4,2c-1.6-0.6-2.5-2.3-2-4c0.6-1.6,2.3-2.5,4-2C51.8,74.4,52.6,76.2,52.1,77.8
			L52.1,77.8z"/>
		<path class="st0" d="M83.6,12.5c-0.6,1.6-2.3,2.5-4,2c-1.6-0.6-2.5-2.3-2-4c0.6-1.6,2.3-2.5,4-2C83.3,9.1,84.2,10.9,83.6,12.5
			L83.6,12.5z"/>
		<path class="st0" d="M37.9,47.5c-0.6,1.6-2.3,2.5-4,2c-1.6-0.6-2.5-2.3-2-4c0.6-1.6,2.3-2.5,4-2C37.6,44.1,38.4,45.9,37.9,47.5
			L37.9,47.5z"/>
		<path class="st0" d="M58.9,21.7c-0.6,1.6-2.3,2.5-4,2c-1.6-0.6-2.5-2.3-2-4c0.6-1.6,2.3-2.5,4-2C58.6,18.3,59.4,20.1,58.9,21.7
			L58.9,21.7z"/>
		<path class="st0" d="M36,84.6c-0.6,1.6-2.3,2.5-4,2c-1.6-0.6-2.5-2.3-2-4c0.6-1.6,2.3-2.5,4-2C35.7,81.2,36.6,83,36,84.6L36,84.6z
			"/>
		<path class="st0" d="M54.7,112.9c-0.6,1.6-2.3,2.5-4,2c-1.6-0.6-2.5-2.3-2-4c0.6-1.6,2.3-2.5,4-2
			C54.4,109.4,55.3,111.2,54.7,112.9L54.7,112.9z"/>
		<path class="st0" d="M143,90.1c-0.6,1.6-2.3,2.5-4,2c-1.6-0.6-2.5-2.3-2-4c0.6-1.6,2.3-2.5,4-2C142.7,86.7,143.5,88.4,143,90.1
			L143,90.1z"/>
		<path class="st0" d="M123.4,91c-0.6,1.6-2.3,2.5-4,2c-1.6-0.6-2.5-2.3-2-4c0.6-1.6,2.3-2.5,4-2C123.1,87.5,123.9,89.3,123.4,91
			L123.4,91z"/>
		<path class="st0" d="M87.3,89.9c-0.6,1.6-2.3,2.5-4,2c-1.6-0.6-2.5-2.3-2-4c0.6-1.6,2.3-2.5,4-2C87,86.4,87.9,88.2,87.3,89.9
			L87.3,89.9z"/>
		<path class="st1" d="M93.2,128.7c1.8,2.1,3.6,4.1,5.6,6c-4,0.7-8.2,1.1-12.4,1.1c-35.5,0-64.6-27.3-67.6-62
			c1.9-1.4,4.2-2.8,6.7-4.2c0.8,33,27.8,59.5,61,59.5C88.8,129,91,128.9,93.2,128.7L93.2,128.7z M143.3,45.6c1.6-2.2,3-4.5,4.3-6.9
			c4.2,8.9,6.6,18.8,6.6,29.3c0,29.3-18.6,54.3-44.7,63.8c-1.8-1.5-3.8-3.2-5.7-5.2c25.3-7.5,43.8-30.9,43.8-58.6
			C147.6,60.1,146.1,52.5,143.3,45.6L143.3,45.6z M86.4,0.1L86.4,0.1c23,0,43.4,11.5,55.6,29c-0.9,2.1-2.1,4.4-3.5,6.8
			c-10.8-17.4-30-29-52-29c-30.6,0-55.9,22.5-60.4,51.9c-2.5,1.2-5,2.5-7.4,3.9C21.5,27.7,50.7,0.1,86.4,0.1L86.4,0.1z"/>
		<path class="st1" d="M65.1,71.4c6.3,18.1,33.1,66.4,53.9,70.1c10.6,1.9,17.1-7.8,14.7-24.9c0,0,1.9,7.5,0.8,15.4
			c-1.9,14-9.8,17.6-18.8,15.1c-0.3-0.1-0.6-0.2-0.9-0.3C91.2,139.5,70.9,93,65.1,71.4L65.1,71.4z M95.3,87.8
			c15.9-10.8,55.6-49.2,53.7-70.2c-1-10.7-12-14.5-27.8-7.8c0,0,6.7-3.8,14.7-4.8c14.1-1.8,19.5,4.9,19.5,14.2c0,0.3,0,0.6,0,0.9
			C154.4,44.9,114.7,76.6,95.3,87.8L95.3,87.8z M88.8,46.4C69.6,47.9,16,61.3,7.1,80.4c-4.5,9.8,3.1,18.6,20.2,20.7
			c0,0-7.7-0.1-15.1-3.2c-13.1-5.4-14.4-14-9.8-22c0.2-0.3,0.3-0.5,0.5-0.8C16.2,54,66.4,46.4,88.8,46.4L88.8,46.4z"/>
	</g>
</g>
</svg>
