<svg width="203" height="192" viewBox="0 0 203 192" fill="none" xmlns="http://www.w3.org/2000/svg">
<path fill-rule="evenodd" clip-rule="evenodd" d="M121.833 166.901C124.169 169.626 126.506 172.222 129.101 174.688C123.91 175.596 118.459 176.116 113.008 176.116C66.9352 176.116 29.1683 140.685 25.2748 95.6501C27.7407 93.8332 30.7257 92.0162 33.9703 90.1992C35.0085 133.028 70.05 167.42 113.138 167.42C116.123 167.29 118.978 167.161 121.833 166.901ZM186.855 59.0513C188.931 56.1961 190.748 53.2111 192.435 50.0963C197.886 61.647 201.001 74.4955 201.001 88.1227C201.001 126.149 176.861 158.595 142.988 170.924C140.652 168.978 138.056 166.771 135.59 164.176C168.426 154.442 192.435 124.073 192.435 88.1227C192.435 77.8698 190.489 68.0063 186.855 59.0513ZM113.008 0C142.858 0 169.334 14.9251 185.168 37.6371C183.999 40.3625 182.442 43.3475 180.625 46.4623C166.609 23.8801 141.69 8.82525 113.138 8.82525C73.4243 8.82525 40.5892 38.0264 34.749 76.1827C31.5044 77.7401 28.2598 79.4272 25.145 81.2442C28.7789 35.8201 66.6756 0 113.008 0Z" fill="white"/>
<path fill-rule="evenodd" clip-rule="evenodd" d="M85.3645 92.5353C93.5408 116.026 128.323 178.711 155.318 183.513C169.075 185.979 177.51 173.39 174.396 151.197C174.396 151.197 176.862 160.931 175.434 171.184C172.968 189.353 162.715 194.026 151.035 190.781C150.645 190.651 150.256 190.522 149.867 190.392C119.238 180.918 92.8919 120.568 85.3645 92.5353ZM124.559 113.82C145.194 99.8032 196.718 49.9665 194.252 22.712C192.955 8.82524 178.678 3.89348 158.173 12.5889C158.173 12.5889 166.868 7.65719 177.251 6.35936C195.55 4.02326 202.559 12.7187 202.559 24.7886C202.559 25.1779 202.559 25.5673 202.559 25.9566C201.261 58.1428 149.737 99.284 124.559 113.82ZM116.123 60.0896C91.2047 62.0363 21.641 79.4272 10.0903 104.216C4.25005 116.935 14.1136 128.355 36.3065 131.081C36.3065 131.081 26.3132 130.951 16.7092 126.928C-0.29236 119.92 -1.97954 108.758 3.99048 98.3756C4.25005 97.9862 4.37983 97.7266 4.6394 97.3373C21.9005 69.9531 87.0517 60.0896 116.123 60.0896Z" fill="white"/>
</svg>
